<svg width="30" height="30" viewBox="0 0 30 30" fill="currentColor" xmlns="http://www.w3.org/2000/svg">
<path d="M3.75 25V23.125H26.25V25H3.75ZM3.75 6.875V5H26.25V6.875H3.75ZM5.625 19.6562C5.125 19.6562 4.6875 19.4688 4.3125 19.0938C3.9375 18.7188 3.75 18.2812 3.75 17.7812V12.2188C3.75 11.7188 3.9375 11.2812 4.3125 10.9062C4.6875 10.5312 5.125 10.3438 5.625 10.3438H24.375C24.875 10.3438 25.3125 10.5312 25.6875 10.9062C26.0625 11.2812 26.25 11.7188 26.25 12.2188V17.7812C26.25 18.2812 26.0625 18.7188 25.6875 19.0938C25.3125 19.4688 24.875 19.6562 24.375 19.6562H5.625ZM5.625 17.7812H24.375V12.2188H5.625V17.7812Z" fill="currentColor"/>
</svg>
