<svg width="429" height="429" viewBox="0 0 429 429" fill="none" xmlns="http://www.w3.org/2000/svg">
<path opacity="0.7" d="M58.2839 143.363C58.2839 143.363 34.3629 205.139 67.9793 267.344C101.596 329.549 170.836 362.411 226.255 390.51C281.673 418.61 339.219 404.924 366.563 358.901C393.908 312.878 356.405 280.025 356.353 214.397C356.302 148.769 366.177 131.394 330.613 75.9502C295.049 20.5062 207.868 8.22822 141.939 49.3522C76.0102 90.4761 58.2839 143.363 58.2839 143.363Z" fill="white"/>
<path d="M166.452 20.9438C137.28 25.74 109.421 36.3106 85.7228 54.5774C51.2483 81.1754 32.1321 120.875 30.1329 164.075C28.8202 192.595 35.6241 220.403 43.8609 247.482C54.4315 282.282 61.2612 321.999 83.3547 351.78C117.76 398.112 184.247 417.657 239.854 409.369C275.778 404.006 313.736 383.629 324.796 346.735C328.889 333.084 330.879 318.421 337.872 305.8C346.254 290.682 361.45 281.853 372.99 269.541C387.25 254.337 392.99 235.392 396.542 215.358C404.315 171.497 393.702 125.036 368.073 88.6486C341.33 50.6907 301.656 30.3046 256.611 22.308C251.669 21.45 246.701 20.6864 241.716 20.06C216.971 16.9455 191.248 16.8425 166.452 20.9438Z" fill="#82D5FF"/>
<path opacity="0.7" d="M166.452 20.9438C137.28 25.74 109.421 36.3106 85.7228 54.5774C51.2483 81.1754 32.1321 120.875 30.1329 164.075C28.8202 192.595 35.6241 220.403 43.8609 247.482C54.4315 282.282 61.2612 321.999 83.3547 351.78C117.76 398.112 184.247 417.657 239.854 409.369C275.778 404.006 313.736 383.629 324.796 346.735C328.889 333.084 330.879 318.421 337.872 305.8C346.254 290.682 361.45 281.853 372.99 269.541C387.25 254.337 392.99 235.392 396.542 215.358C404.315 171.497 393.702 125.036 368.073 88.6486C341.33 50.6907 301.656 30.3046 256.611 22.308C251.669 21.45 246.701 20.6864 241.716 20.06C216.971 16.9455 191.248 16.8425 166.452 20.9438Z" fill="white"/>
<path opacity="0.2" d="M172.698 328.322L244.53 314.929C244.53 314.929 260.781 366.203 264.058 372.835L262.342 376.859L263.423 383.595L192.038 399.828L186.315 395.315L172.698 328.322Z" fill="black" fill-opacity="0.7"/>
<path d="M239.312 309.433L169.871 325.874L186.312 395.314L255.752 378.874L239.312 309.433Z" fill="#82D5FF"/>
<mask id="mask0_1_37" style="mask-type:luminance" maskUnits="userSpaceOnUse" x="169" y="309" width="87" height="87">
<path d="M239.312 309.433L169.871 325.874L186.312 395.314L255.752 378.874L239.312 309.433Z" fill="white"/>
</mask>
<g mask="url(#mask0_1_37)">
<path opacity="0.2" d="M243.749 328.168L255.272 376.825L189.052 392.501C181.072 372.535 174.972 347.396 174.972 347.396L243.749 328.168Z" fill="black" fill-opacity="0.7"/>
</g>
<path d="M239.312 309.433L169.871 325.874L186.312 395.314L255.752 378.874L239.312 309.433Z" stroke="#263238" stroke-linecap="round" stroke-linejoin="round"/>
<path d="M257.923 374.448C240.566 378.558 215.984 382.419 201.158 384.599C193.436 385.731 188.288 386.4 188.288 386.4C181.716 374.388 169.858 325.877 169.858 325.877L239.296 309.438C239.433 310.03 239.554 310.622 239.682 311.205C247.962 348.726 257.923 374.448 257.923 374.448Z" fill="white"/>
<mask id="mask1_1_37" style="mask-type:luminance" maskUnits="userSpaceOnUse" x="169" y="309" width="89" height="78">
<path d="M257.923 374.448C240.566 378.558 215.984 382.419 201.158 384.599C193.436 385.731 188.288 386.4 188.288 386.4C181.716 374.388 169.858 325.877 169.858 325.877L239.296 309.438C239.433 310.03 239.554 310.622 239.682 311.205C247.962 348.726 257.923 374.448 257.923 374.448Z" fill="white"/>
</mask>
<g mask="url(#mask1_1_37)">
<path opacity="0.4" d="M257.923 374.448C240.566 378.558 215.984 382.419 201.158 384.598C190.004 377.194 187.336 369.935 187.473 363.011C187.619 354.792 223.432 362.822 230.914 354.68C236.25 348.871 236.062 324.221 239.699 311.205C247.962 348.726 257.923 374.448 257.923 374.448Z" fill="#82D5FF"/>
</g>
<path d="M257.923 374.448C240.566 378.558 215.984 382.419 201.158 384.599C193.436 385.731 188.288 386.4 188.288 386.4C181.716 374.388 169.858 325.877 169.858 325.877L239.296 309.438C239.433 310.03 239.554 310.622 239.682 311.205C247.962 348.726 257.923 374.448 257.923 374.448Z" stroke="#263238" stroke-linecap="round" stroke-linejoin="round"/>
<path d="M181.596 336.379C182.538 335.281 183.668 334.36 184.933 333.659L185.963 336.302L189.558 334.998C190.759 334.56 192.132 333.994 192.552 332.801C193.213 334.371 195.495 334.105 197.117 333.59C208.345 329.976 219.813 327.158 231.437 325.156" stroke="#263238" stroke-linecap="round" stroke-linejoin="round"/>
<path d="M183.337 345.989C182.591 345.602 183.209 344.273 184.05 344.324C184.89 344.375 185.431 345.302 185.5 346.143C185.872 346.102 186.221 345.945 186.498 345.694C186.776 345.443 186.967 345.11 187.044 344.744L188.237 345.602C188.137 345.454 188.069 345.288 188.037 345.113C188.005 344.937 188.008 344.757 188.048 344.584C188.088 344.41 188.163 344.247 188.269 344.103C188.374 343.959 188.508 343.839 188.662 343.749C188.816 343.659 188.986 343.602 189.163 343.581C189.34 343.559 189.519 343.574 189.69 343.625C189.861 343.676 190.02 343.761 190.156 343.875C190.293 343.989 190.405 344.13 190.485 344.29C190.399 343.312 190.776 341.904 191.729 342.128C192.026 342.25 192.296 342.427 192.527 342.651C192.817 342.828 193.146 342.934 193.485 342.96C193.825 342.986 194.165 342.932 194.48 342.801C194.794 342.671 195.073 342.468 195.295 342.209C195.516 341.951 195.673 341.643 195.753 341.312C196.688 342.376 198.327 342.23 199.76 341.99L212.252 339.862C212.372 339.073 212.767 338.061 213.556 338.146C214.011 338.215 214.311 338.653 214.706 338.893C215.314 339.148 215.994 339.172 216.619 338.961C222.247 337.742 227.769 336.081 233.136 333.994" stroke="#263238" stroke-linecap="round" stroke-linejoin="round"/>
<path d="M187.645 356.928C189.313 357.074 190.994 356.842 192.561 356.25C192.284 355.664 192.213 355.001 192.361 354.37C192.51 353.739 192.867 353.177 193.376 352.775L194.886 353.745C200.967 353.6 207.012 352.766 212.904 351.257C215.538 350.587 218.146 349.772 220.746 348.957L235.555 344.341" stroke="#263238" stroke-linecap="round" stroke-linejoin="round"/>
<path opacity="0.2" d="M302.394 52.7756L301.012 52.8614C300.376 52.9352 299.734 52.7784 299.204 52.4194C298.673 52.0605 298.289 51.5232 298.121 50.9051C296.01 43.226 288.288 38.9103 279.373 39.468C271.325 39.9656 262.84 45.045 257.923 52.0634C257.319 52.9835 256.519 53.7583 255.58 54.3324C254.641 54.9065 253.587 55.2656 252.492 55.3839L245.628 55.8129C244.691 55.8995 243.751 55.6828 242.946 55.1946C242.141 54.7065 241.514 53.9728 241.158 53.1016C238.387 46.5551 231.36 42.4453 223.303 42.9429C214.371 43.492 205.139 48.8545 200.549 56.954C200.186 57.6059 199.671 58.1607 199.049 58.5714C198.426 58.9822 197.713 59.2367 196.971 59.3135L195.59 59.3993C195.266 59.435 194.962 59.5746 194.724 59.7974C194.485 60.0201 194.326 60.3139 194.268 60.6349L193.728 64.0669C193.695 64.182 193.686 64.3027 193.702 64.4213C193.719 64.54 193.76 64.6539 193.823 64.7557C193.886 64.8576 193.97 64.9451 194.068 65.0126C194.167 65.0802 194.279 65.1263 194.397 65.1479L196.062 65.6542C196.707 65.8462 197.266 66.2569 197.641 66.8158C198.017 67.3747 198.187 68.047 198.121 68.7172C197.537 79.7082 205.294 87.782 216.336 87.1042C226.984 86.4435 237.117 77.8463 240.429 67.25C240.709 66.3922 241.197 65.6171 241.85 64.9942C242.503 64.3713 243.3 63.92 244.17 63.6808C246.53 63.0588 248.986 62.8842 251.411 63.166C252.184 63.256 252.894 63.6334 253.401 64.2231C253.908 64.8129 254.175 65.5718 254.148 66.3491C254.148 76.7738 261.724 84.2899 272.389 83.6293C283.449 82.96 293.934 73.788 296.868 62.634C297.079 61.8618 297.468 61.1496 298.002 60.5538C298.537 59.958 299.203 59.4952 299.948 59.202L301.81 58.4899C302.07 58.4012 302.302 58.2447 302.482 58.0366C302.661 57.8284 302.782 57.5762 302.831 57.3058L303.38 53.8738C303.425 53.7317 303.432 53.5804 303.4 53.4348C303.368 53.2892 303.299 53.1544 303.2 53.0435C303.1 52.9327 302.974 52.8497 302.832 52.8027C302.691 52.7558 302.54 52.7464 302.394 52.7756ZM216.808 84.2041C206.512 84.839 199.554 76.7567 201.218 66.1861C202.883 55.6156 212.595 46.4521 222.866 45.8601C233.136 45.2681 240.12 53.3075 238.447 63.8781C236.774 74.4487 227.078 83.5692 216.808 84.2041ZM241.51 61.6473C241.55 61.0753 241.567 60.4833 241.561 59.8712C241.572 59.6267 241.669 59.3939 241.836 59.2147C242.003 59.0354 242.228 58.9214 242.471 58.8931L254.757 58.1381C254.864 58.128 254.972 58.1457 255.069 58.1897C255.167 58.2337 255.252 58.3023 255.315 58.3888C255.378 58.4754 255.417 58.5769 255.43 58.6833C255.442 58.7898 255.426 58.8976 255.384 58.9961C255.195 59.5881 255.023 60.1801 254.869 60.7807C249.584 59.2449 244.307 60.6263 241.51 61.6473ZM272.844 80.7292C262.548 81.3641 255.59 73.2818 257.263 62.7112C258.936 52.1407 268.631 42.9772 278.902 42.3852C289.172 41.7932 296.156 49.8326 294.491 60.4032C292.827 70.9738 283.14 80.0943 272.844 80.7292Z" fill="black" fill-opacity="0.7"/>
<path d="M293.582 54.912L214.852 65.3624C212.993 65.6093 211.206 66.2431 209.607 67.2229C208.008 68.2027 206.632 69.5067 205.568 71.051L194.045 87.8163C193.94 87.9721 193.871 88.1498 193.843 88.336C193.816 88.5223 193.83 88.7123 193.886 88.8921C193.942 89.0718 194.038 89.2366 194.167 89.3742C194.295 89.5117 194.453 89.6186 194.629 89.6867C195.401 89.9836 196.25 90.0112 197.039 89.7652C197.829 89.5191 198.512 89.0138 198.979 88.3311L209.635 72.8871C210.269 71.9625 211.089 71.1799 212.041 70.5891C212.994 69.9983 214.059 69.6121 215.169 69.4551L293.865 58.3011L293.582 54.912Z" fill="#263238"/>
<path d="M187.37 61.5358L266.769 60.223C268.647 60.1966 270.509 60.5648 272.236 61.3038C273.962 62.0428 275.514 63.1362 276.791 64.513L290.673 79.3907C290.801 79.5285 290.896 79.6935 290.951 79.8733C291.006 80.0531 291.02 80.243 290.991 80.4288C290.962 80.6146 290.892 80.7914 290.785 80.946C290.677 81.1006 290.537 81.2289 290.373 81.3212C289.654 81.7307 288.819 81.8857 288.001 81.7612C287.184 81.6366 286.432 81.2397 285.868 80.6348L273.041 66.9068C272.274 66.0842 271.344 65.4305 270.309 64.9873C269.275 64.5441 268.16 64.3212 267.035 64.3328L187.55 64.9334L187.37 61.5358Z" fill="#263238"/>
<path d="M235.495 66.5894C236.473 66.7696 236.43 73.4534 234.217 75.7099C232.003 77.9665 229.738 72.4753 230.313 70.5019C230.888 68.5285 232.432 66.0059 235.495 66.5894Z" fill="#82D5FF" stroke="#263238" stroke-linecap="round" stroke-linejoin="round"/>
<path d="M249.292 65.7314C248.348 66.0403 249.215 72.5954 251.686 74.6288C254.157 76.6623 255.735 70.8622 254.92 68.9832C254.105 67.1042 252.252 64.779 249.292 65.7314Z" fill="#82D5FF" stroke="#263238" stroke-linecap="round" stroke-linejoin="round"/>
<path opacity="0.5" d="M200.103 50.948C204.255 47.3959 213.05 41.347 222.677 47.1042C232.304 52.8614 235.624 59.1162 233.651 67.5847C231.677 76.0531 225.611 87.3787 211.343 85.4053C197.074 83.4319 187.207 61.9819 200.103 50.948Z" fill="#82D5FF"/>
<path opacity="0.5" d="M256.242 48.211C260.394 44.6589 269.18 38.6014 278.807 44.3586C288.434 50.1158 291.763 56.3706 289.781 64.8391C287.799 73.3075 281.75 84.6331 267.473 82.6597C253.196 80.6863 243.337 59.202 256.242 48.211Z" fill="#82D5FF"/>
<path d="M295.221 53.7108L293.839 53.7966C293.155 53.8418 292.472 53.6865 291.875 53.3497C291.278 53.0129 290.791 52.5093 290.476 51.9004C286.649 44.453 277.889 40.2831 268.957 40.8322C265.012 41.0895 261.199 42.352 257.88 44.4996C254.561 46.6473 251.847 49.6085 249.995 53.1016C249.551 54.0098 248.877 54.7861 248.04 55.3535C247.204 55.9209 246.233 56.2597 245.225 56.3363L238.361 56.7567C237.349 56.8099 236.34 56.5961 235.437 56.1369C234.533 55.6776 233.766 54.9889 233.213 54.1398C230.944 50.9018 227.885 48.2984 224.325 46.5773C220.766 44.8562 216.825 44.0746 212.878 44.3071C203.947 44.8648 195.77 50.0815 192.896 57.9493C192.657 58.5917 192.235 59.1505 191.684 59.5574C191.132 59.9642 190.474 60.2015 189.79 60.2402L188.408 60.326C188.107 60.3458 187.826 60.4843 187.626 60.7111C187.427 60.9378 187.326 61.2344 187.344 61.5358L187.55 64.8905C187.568 65.1414 187.667 65.3796 187.833 65.5687C187.999 65.7578 188.222 65.8872 188.468 65.9373L190.27 66.4178C190.969 66.5947 191.602 66.9684 192.095 67.4947C192.588 68.0209 192.919 68.6775 193.05 69.3865C193.868 74.5605 196.552 79.2562 200.594 82.588C204.636 85.9197 209.758 87.6571 214.993 87.4723C220.228 87.2876 225.215 85.1936 229.012 81.5853C232.809 77.977 235.155 73.1038 235.607 67.885C235.701 67.0747 236.039 66.3123 236.577 65.6992C237.115 65.0862 237.827 64.6514 238.618 64.453C240.973 63.8312 243.424 63.6566 245.843 63.9382C246.661 64.0432 247.428 64.3951 248.041 64.9469C248.654 65.4988 249.084 66.2243 249.275 67.027C250.342 72.1762 253.264 76.754 257.485 79.8904C261.706 83.0269 266.932 84.5035 272.17 84.0397C277.408 83.576 282.294 81.2041 285.898 77.3748C289.502 73.5455 291.574 68.5256 291.72 63.2689C291.759 62.5519 292.002 61.8611 292.422 61.2786C292.842 60.696 293.42 60.2463 294.088 59.9828L295.804 59.2792C296.042 59.199 296.247 59.0433 296.388 58.8357C296.529 58.6281 296.598 58.3801 296.585 58.1295L296.37 54.7747C296.355 54.4827 296.226 54.2081 296.011 54.0095C295.797 53.8108 295.513 53.7037 295.221 53.7108ZM215.358 84.3671C211.674 84.5965 208.005 83.7278 204.815 81.871C201.625 80.0141 199.058 77.2527 197.438 73.9361C195.818 70.6195 195.219 66.8969 195.716 63.2395C196.213 59.5821 197.783 56.1543 200.229 53.39C202.675 50.6257 205.886 48.6492 209.455 47.7106C213.025 46.7719 216.793 46.9135 220.282 48.1172C223.771 49.321 226.825 51.5328 229.057 54.4728C231.288 57.4128 232.597 60.9488 232.818 64.6331C233.107 69.5624 231.433 74.4055 228.161 78.1035C224.889 81.8015 220.286 84.0535 215.358 84.3671ZM235.435 62.4367C235.341 61.8532 235.229 61.2784 235.092 60.7207C235.065 60.6103 235.063 60.4954 235.086 60.3841C235.109 60.2729 235.156 60.168 235.224 60.0771C235.292 59.9861 235.379 59.9113 235.48 59.8579C235.58 59.8046 235.691 59.774 235.804 59.7683L248.091 59.0047C248.207 58.9909 248.324 59.0036 248.435 59.0418C248.545 59.08 248.645 59.1428 248.728 59.2254C248.811 59.308 248.873 59.4083 248.912 59.5187C248.95 59.6291 248.963 59.7467 248.949 59.8627C248.889 60.4289 248.846 61.0124 248.82 61.5787C244.386 60.474 239.718 60.7738 235.461 62.4367H235.435ZM271.42 80.8922C267.736 81.1216 264.067 80.2529 260.877 78.3961C257.687 76.5392 255.12 73.7778 253.5 70.4612C251.88 67.1446 251.281 63.422 251.777 59.7646C252.274 56.1072 253.845 52.6794 256.291 49.9151C258.737 47.1508 261.948 45.1743 265.517 44.2357C269.087 43.297 272.855 43.4386 276.344 44.6423C279.833 45.8461 282.887 48.0579 285.118 50.9979C287.35 53.9379 288.659 57.4739 288.88 61.1582C289.171 66.0838 287.501 70.9245 284.234 74.6223C280.967 78.3201 276.369 80.5743 271.445 80.8922H271.42Z" fill="#757575" stroke="#263238" stroke-linecap="round" stroke-linejoin="round"/>
<path opacity="0.4" d="M201.63 77.7691C201.63 77.7691 194.766 68.6829 199.605 58.1295C203.972 48.64 214.191 47.5589 219.039 49.5495L208.494 68.0137C209.464 63.5036 210.917 59.1111 212.827 54.912C212.827 54.912 203.509 64.35 201.63 77.7691Z" fill="white"/>
<path opacity="0.4" d="M257.554 73.788C257.554 73.788 250.69 64.7104 255.53 54.157C259.897 44.6589 270.116 43.5778 274.955 45.577L264.376 64.0068C265.174 57.3916 268.751 50.9223 268.751 50.9223C268.751 50.9223 259.425 60.3517 257.554 73.788Z" fill="white"/>
<path opacity="0.2" d="M56.2848 234.097L58.773 245.276L61.613 232.621L54.1484 106.212H49.0604L56.2848 234.097Z" fill="black" fill-opacity="0.7"/>
<path d="M51.7374 104.676L58.773 231.832L56.199 242.291L52.4753 232.183L45.4225 105.019C45.4062 104.807 45.4323 104.595 45.4993 104.393C45.5663 104.192 45.6728 104.005 45.8126 103.846C45.9525 103.686 46.1228 103.556 46.3136 103.462C46.5045 103.369 46.712 103.315 46.924 103.303L50.0557 103.132C50.2681 103.12 50.4807 103.151 50.6809 103.223C50.8812 103.295 51.065 103.406 51.2217 103.55C51.3784 103.694 51.5047 103.867 51.5933 104.061C51.6818 104.254 51.7308 104.463 51.7374 104.676Z" fill="#82D5FF"/>
<mask id="mask2_1_37" style="mask-type:luminance" maskUnits="userSpaceOnUse" x="45" y="103" width="14" height="140">
<path d="M51.7374 104.676L58.773 231.832L56.199 242.291L52.4753 232.183L45.4225 105.019C45.4062 104.807 45.4323 104.595 45.4993 104.393C45.5663 104.192 45.6728 104.005 45.8126 103.846C45.9525 103.686 46.1228 103.556 46.3136 103.462C46.5045 103.369 46.712 103.315 46.924 103.303L50.0557 103.132C50.2681 103.12 50.4807 103.151 50.6809 103.223C50.8812 103.295 51.065 103.406 51.2217 103.55C51.3784 103.694 51.5047 103.867 51.5933 104.061C51.6818 104.254 51.7308 104.463 51.7374 104.676Z" fill="white"/>
</mask>
<g mask="url(#mask2_1_37)">
<path opacity="0.2" d="M56.1818 242.291L52.4581 232.183L45.4225 105.019C45.4062 104.807 45.4323 104.595 45.4993 104.393C45.5663 104.192 45.6728 104.005 45.8126 103.846C45.9525 103.686 46.1228 103.556 46.3136 103.462C46.5045 103.369 46.712 103.315 46.924 103.303H47.3616L54.4487 231.394L56.1818 242.291Z" fill="black" fill-opacity="0.7"/>
</g>
<path d="M51.7374 104.676L58.773 231.832L56.199 242.291L52.4753 232.183L45.4225 105.019C45.4062 104.807 45.4323 104.595 45.4993 104.393C45.5663 104.192 45.6728 104.005 45.8126 103.846C45.9525 103.686 46.1228 103.556 46.3136 103.462C46.5045 103.369 46.712 103.315 46.924 103.303L50.0557 103.132C50.2681 103.12 50.4807 103.151 50.6809 103.223C50.8812 103.295 51.065 103.406 51.2217 103.55C51.3784 103.694 51.5047 103.867 51.5933 104.061C51.6818 104.254 51.7308 104.463 51.7374 104.676Z" stroke="#263238" stroke-linecap="round" stroke-linejoin="round"/>
<path d="M47.4817 105.534L54.3457 230.364C54.3534 230.506 54.389 230.646 54.4505 230.774C54.5121 230.902 54.5983 231.017 54.7043 231.112C54.8103 231.207 54.934 231.28 55.0683 231.327C55.2026 231.374 55.3448 231.394 55.4868 231.385H56.2419" fill="#82D5FF"/>
<path d="M47.4817 105.534L54.3457 230.364C54.3534 230.506 54.389 230.646 54.4505 230.774C54.5121 230.902 54.5983 231.017 54.7043 231.112C54.8103 231.207 54.934 231.28 55.0683 231.327C55.2026 231.374 55.3448 231.394 55.4868 231.385H56.2419" stroke="#263238" stroke-linecap="round" stroke-linejoin="round"/>
<path opacity="0.2" d="M78.7214 257.795L101.982 105.817C102.699 101.145 105.242 96.9485 109.052 94.1505C112.861 91.3526 117.627 90.1822 122.299 90.8965L345.645 125.088C347.959 125.441 350.181 126.246 352.183 127.458C354.186 128.669 355.93 130.264 357.317 132.15C358.703 134.036 359.704 136.176 360.263 138.449C360.822 140.722 360.928 143.083 360.574 145.397L337.305 297.374C336.955 299.689 336.151 301.913 334.94 303.917C333.729 305.921 332.135 307.667 330.248 309.054C328.362 310.442 326.221 311.443 323.947 312.002C321.673 312.561 319.311 312.667 316.997 312.312L93.6421 278.112C88.9698 277.395 84.7734 274.852 81.9755 271.042C79.1775 267.232 78.0071 262.467 78.7214 257.795Z" fill="black" fill-opacity="0.7"/>
<path d="M96.6466 111.535L98.4129 99.992C98.4474 99.7671 98.5697 99.565 98.7531 99.4303C98.9365 99.2956 99.1659 99.2392 99.3909 99.2736L104.259 100.019L102.235 113.249L97.3663 112.504C97.1428 112.47 96.9418 112.349 96.8071 112.168C96.6723 111.986 96.6147 111.759 96.6466 111.535Z" fill="#82D5FF" stroke="#263238" stroke-linecap="round" stroke-linejoin="round"/>
<path d="M126.887 87.2239L138.43 88.9902C138.655 89.0246 138.857 89.147 138.991 89.3304C139.126 89.5138 139.183 89.7432 139.148 89.9681L138.403 94.8363L125.172 92.8117L125.917 87.9435C125.952 87.72 126.073 87.5191 126.254 87.3843C126.436 87.2496 126.663 87.1919 126.887 87.2239Z" fill="#82D5FF" stroke="#263238" stroke-linecap="round" stroke-linejoin="round"/>
<path d="M142.619 89.6266L154.162 91.3929C154.387 91.4273 154.589 91.5497 154.723 91.7331C154.858 91.9165 154.914 92.1459 154.88 92.3708L154.135 97.2391L140.904 95.2145L141.649 90.3462C141.683 90.1227 141.804 89.9218 141.986 89.787C142.168 89.6523 142.395 89.5946 142.619 89.6266Z" fill="#82D5FF" stroke="#263238" stroke-linecap="round" stroke-linejoin="round"/>
<path d="M76.1475 254.363L99.4079 102.385C100.125 97.7129 102.668 93.5165 106.478 90.7185C110.288 87.9206 115.053 86.7502 119.725 87.4645L343.071 121.656C345.385 122.009 347.607 122.814 349.609 124.026C351.612 125.237 353.356 126.832 354.743 128.718C356.129 130.604 357.13 132.744 357.689 135.017C358.248 137.29 358.354 139.651 358 141.965L334.732 293.942C334.381 296.257 333.577 298.481 332.366 300.485C331.155 302.489 329.561 304.235 327.674 305.622C325.788 307.01 323.647 308.011 321.373 308.57C319.099 309.129 316.737 309.235 314.423 308.88L91.0681 274.68C86.3958 273.963 82.1994 271.42 79.4015 267.61C76.6036 263.8 75.4331 259.035 76.1475 254.363Z" fill="#82D5FF" stroke="#263238" stroke-linecap="round" stroke-linejoin="round"/>
<path d="M315.298 306.984L90.7935 272.621C88.814 272.319 86.9133 271.631 85.2 270.594C83.4868 269.557 81.9947 268.193 80.809 266.58C79.6233 264.966 78.7673 263.135 78.2898 261.19C77.8124 259.245 77.7229 257.226 78.0265 255.246L101.467 102.102C102.078 98.1051 104.252 94.5146 107.51 92.1204C110.769 89.7261 114.845 88.7242 118.842 89.3349L343.354 123.698C347.351 124.313 350.94 126.489 353.334 129.748C355.727 133.008 356.73 137.083 356.121 141.081L332.681 294.217C332.378 296.197 331.689 298.098 330.651 299.811C329.614 301.524 328.249 303.016 326.634 304.202C325.02 305.387 323.188 306.243 321.243 306.721C319.298 307.198 317.278 307.287 315.298 306.984Z" fill="#757575" stroke="#263238" stroke-linecap="round" stroke-linejoin="round"/>
<path d="M93.522 179.253C93.4935 179.419 93.4167 179.573 93.3013 179.696C93.1859 179.819 93.0369 179.905 92.8729 179.943C92.709 179.982 92.5373 179.971 92.3792 179.913C92.2212 179.855 92.0838 179.751 91.9843 179.615C91.8847 179.479 91.8273 179.317 91.8193 179.149C91.8113 178.981 91.853 178.814 91.9392 178.669C92.0254 178.524 92.1523 178.408 92.3041 178.335C92.4559 178.262 92.6258 178.235 92.7927 178.258C92.9068 178.274 93.0165 178.312 93.1154 178.371C93.2143 178.43 93.3004 178.508 93.3684 178.601C93.4365 178.694 93.4852 178.799 93.5115 178.912C93.5379 179.024 93.5415 179.14 93.522 179.253Z" fill="#999999" stroke="#263238" stroke-linecap="round" stroke-linejoin="round"/>
<path d="M93.1015 187.241C93.015 187.662 92.7705 188.032 92.4183 188.277C92.0662 188.522 91.6334 188.623 91.2093 188.558C90.7853 188.493 90.4024 188.267 90.1398 187.928C89.8772 187.589 89.7549 187.162 89.7982 186.735C89.8847 186.315 90.1293 185.944 90.4814 185.699C90.8336 185.454 91.2664 185.354 91.6904 185.419C92.1145 185.484 92.4973 185.709 92.7599 186.048C93.0226 186.387 93.1448 186.815 93.1015 187.241Z" fill="#263238"/>
<path d="M96.0445 168.014C95.958 168.434 95.7134 168.805 95.3613 169.05C95.0091 169.295 94.5763 169.395 94.1523 169.33C93.7282 169.265 93.3454 169.04 93.0827 168.7C92.8201 168.361 92.6978 167.934 92.7412 167.507C92.7641 167.282 92.8327 167.063 92.9427 166.865C93.0528 166.666 93.2021 166.492 93.3815 166.353C93.5609 166.214 93.7667 166.113 93.9863 166.057C94.206 166 94.4349 165.988 94.6592 166.022C94.8834 166.057 95.0984 166.136 95.2909 166.257C95.4834 166.377 95.6495 166.534 95.7791 166.721C95.9087 166.907 95.999 167.118 96.0446 167.34C96.0903 167.562 96.0902 167.791 96.0445 168.014Z" fill="#263238"/>
<path d="M91.806 192.638C91.7693 192.876 91.6629 193.098 91.5002 193.276C91.3375 193.453 91.1258 193.579 90.8918 193.636C90.6579 193.693 90.4122 193.68 90.1858 193.598C89.9594 193.516 89.7625 193.368 89.6199 193.174C89.4773 192.98 89.3954 192.748 89.3846 192.507C89.3739 192.267 89.4347 192.028 89.5593 191.822C89.684 191.616 89.867 191.451 90.0851 191.349C90.3033 191.247 90.5468 191.212 90.7849 191.248C90.9433 191.272 91.0954 191.327 91.2324 191.41C91.3695 191.493 91.4889 191.602 91.5837 191.731C91.6785 191.861 91.747 192.007 91.7851 192.163C91.8233 192.318 91.8303 192.48 91.806 192.638Z" fill="#263238"/>
<path d="M350.484 138.447L326.52 295.049C326.218 297.023 325.144 298.795 323.536 299.978C321.927 301.16 319.914 301.656 317.94 301.355L129.858 272.569L125.783 271.986L110.45 269.635L103.029 268.503L92.3036 266.838L89.9613 266.478C87.9877 266.175 86.2149 265.102 85.0324 263.493C83.8499 261.884 83.3545 259.872 83.655 257.898L107.627 101.244C107.776 100.267 108.116 99.328 108.628 98.4822C109.14 97.6364 109.814 96.8999 110.611 96.3149C111.408 95.7299 112.312 95.3079 113.273 95.073C114.233 94.8382 115.23 94.7951 116.208 94.9463L186.418 105.688L197.04 107.319L207.19 108.872L220.231 110.862L224.95 111.583L344.212 129.833C345.19 129.986 346.128 130.331 346.972 130.847C347.816 131.363 348.551 132.04 349.133 132.84C349.715 133.64 350.135 134.547 350.366 135.509C350.598 136.471 350.638 137.469 350.484 138.447Z" fill="#263238"/>
<g opacity="0.1">
<path d="M174.174 271.128L94.3799 258.919C93.8615 258.838 93.396 258.556 93.0856 258.133C92.7752 257.71 92.6451 257.181 92.724 256.662L100.643 204.899C100.726 204.38 101.01 203.914 101.435 203.604C101.859 203.294 102.389 203.164 102.908 203.243L182.702 215.452C182.96 215.491 183.207 215.58 183.429 215.715C183.652 215.849 183.846 216.027 184 216.236C184.154 216.446 184.265 216.684 184.326 216.937C184.388 217.189 184.399 217.452 184.358 217.709L176.439 269.472C176.399 269.73 176.309 269.977 176.174 270.2C176.038 270.422 175.86 270.616 175.65 270.77C175.44 270.924 175.201 271.034 174.948 271.096C174.694 271.157 174.431 271.168 174.174 271.128ZM102.831 203.929C102.664 203.904 102.493 203.912 102.329 203.952C102.164 203.993 102.01 204.065 101.873 204.166C101.737 204.266 101.622 204.392 101.535 204.537C101.447 204.682 101.389 204.843 101.364 205.011L93.4447 256.765C93.4192 256.932 93.4268 257.103 93.4674 257.268C93.5079 257.432 93.5804 257.587 93.6808 257.723C93.7813 257.859 93.9076 257.974 94.0526 258.062C94.1976 258.149 94.3584 258.207 94.5258 258.232L174.277 270.442C174.444 270.467 174.615 270.459 174.779 270.419C174.944 270.378 175.099 270.306 175.235 270.205C175.371 270.105 175.486 269.979 175.574 269.834C175.661 269.689 175.719 269.528 175.744 269.361L183.672 217.606C183.721 217.267 183.636 216.923 183.434 216.647C183.231 216.371 182.929 216.185 182.591 216.13L102.831 203.929Z" fill="white"/>
</g>
<path opacity="0.4" d="M126.898 235.255L144.762 245.388C146.653 241.919 147.532 237.989 147.299 234.045C147.065 230.1 145.728 226.301 143.44 223.08L126.898 235.255Z" fill="#82D5FF"/>
<path opacity="0.6" d="M127.07 234.234L143.029 222.505C140.872 219.664 138.029 217.417 134.766 215.976L131.617 223.44L127.07 234.234Z" fill="#82D5FF"/>
<path d="M129.79 214.5L127.027 232.518L134.131 215.675C132.73 215.131 131.274 214.737 129.79 214.5Z" fill="#82D5FF"/>
<path opacity="0.1" d="M125.954 235.041L129.103 214.449C125.487 213.954 121.804 214.408 118.416 215.766C115.028 217.124 112.051 219.339 109.776 222.193C107.502 225.048 106.008 228.445 105.442 232.051C104.876 235.657 105.256 239.348 106.546 242.763L125.954 235.041Z" fill="white"/>
<path opacity="0.2" d="M123.071 256.113C127.235 256.75 131.493 256.125 135.298 254.319C139.103 252.513 142.28 249.608 144.419 245.98L126.238 235.684L106.795 243.363C108.183 246.708 110.41 249.639 113.261 251.872C116.112 254.106 119.491 255.566 123.071 256.113Z" fill="#82D5FF"/>
<path d="M159.383 222.863L157.017 222.501C156.721 222.455 156.446 222.658 156.4 222.953L156.038 225.319C155.993 225.615 156.196 225.89 156.491 225.936L158.857 226.298C159.152 226.343 159.428 226.14 159.473 225.845L159.835 223.479C159.88 223.184 159.678 222.908 159.383 222.863Z" fill="#82D5FF"/>
<path d="M172.243 226.126L161.905 224.539C161.852 224.531 161.802 224.514 161.757 224.487C161.712 224.46 161.673 224.424 161.642 224.382C161.61 224.339 161.588 224.291 161.576 224.24C161.563 224.189 161.561 224.136 161.57 224.084C161.577 224.032 161.595 223.982 161.622 223.936C161.649 223.891 161.685 223.852 161.727 223.821C161.769 223.79 161.817 223.767 161.869 223.755C161.92 223.743 161.973 223.741 162.025 223.749L172.321 225.337C172.373 225.344 172.423 225.361 172.468 225.388C172.513 225.415 172.553 225.451 172.584 225.493C172.615 225.536 172.637 225.584 172.65 225.635C172.662 225.686 172.664 225.739 172.655 225.791C172.637 225.887 172.586 225.973 172.51 226.034C172.435 226.095 172.341 226.128 172.243 226.126Z" fill="#82D5FF"/>
<path d="M168.82 227.37L161.639 226.272C161.587 226.264 161.536 226.247 161.491 226.22C161.446 226.193 161.407 226.157 161.376 226.115C161.344 226.072 161.322 226.024 161.31 225.973C161.297 225.922 161.295 225.869 161.304 225.817C161.321 225.713 161.378 225.619 161.463 225.557C161.548 225.494 161.654 225.468 161.759 225.482L168.94 226.581C168.992 226.588 169.042 226.606 169.088 226.633C169.133 226.659 169.172 226.695 169.203 226.738C169.234 226.78 169.257 226.828 169.269 226.879C169.281 226.93 169.283 226.983 169.275 227.035C169.267 227.087 169.25 227.138 169.223 227.183C169.196 227.228 169.16 227.267 169.118 227.298C169.076 227.33 169.027 227.352 168.976 227.364C168.925 227.377 168.872 227.378 168.82 227.37Z" fill="#82D5FF"/>
<path opacity="0.6" d="M158.208 230.55L155.841 230.188C155.546 230.143 155.271 230.345 155.225 230.641L154.863 233.007C154.818 233.302 155.021 233.578 155.316 233.623L157.682 233.985C157.977 234.03 158.253 233.828 158.298 233.532L158.66 231.166C158.705 230.871 158.503 230.595 158.208 230.55Z" fill="#82D5FF"/>
<path d="M171.068 233.805L160.721 232.226C160.617 232.207 160.525 232.15 160.463 232.065C160.401 231.981 160.373 231.876 160.386 231.772C160.403 231.667 160.46 231.574 160.545 231.511C160.63 231.449 160.736 231.422 160.841 231.437L171.188 233.024C171.239 233.032 171.289 233.05 171.333 233.077C171.377 233.104 171.416 233.139 171.447 233.181C171.477 233.223 171.499 233.27 171.512 233.321C171.524 233.371 171.526 233.423 171.518 233.475C171.511 233.526 171.493 233.575 171.466 233.619C171.439 233.664 171.404 233.702 171.362 233.733C171.32 233.764 171.272 233.786 171.222 233.798C171.172 233.811 171.119 233.813 171.068 233.805Z" fill="#82D5FF"/>
<path d="M167.645 235.041L160.446 233.942C160.353 233.914 160.273 233.854 160.221 233.772C160.17 233.689 160.149 233.591 160.164 233.495C160.178 233.4 160.227 233.312 160.301 233.249C160.375 233.186 160.469 233.152 160.566 233.153L167.748 234.251C167.8 234.258 167.85 234.276 167.895 234.303C167.94 234.33 167.979 234.366 168.011 234.408C168.042 234.45 168.064 234.499 168.076 234.55C168.089 234.601 168.091 234.654 168.082 234.706C168.067 234.808 168.013 234.9 167.931 234.962C167.85 235.025 167.747 235.053 167.645 235.041Z" fill="#82D5FF"/>
<path opacity="0.4" d="M157.569 238.398L155.199 238.039C154.904 237.995 154.628 238.198 154.583 238.493L154.224 240.863C154.179 241.159 154.382 241.435 154.678 241.479L157.048 241.839C157.343 241.883 157.619 241.68 157.664 241.384L158.023 239.015C158.068 238.719 157.865 238.443 157.569 238.398Z" fill="#82D5FF"/>
<path d="M169.884 241.493L159.588 239.914C159.495 239.886 159.415 239.825 159.363 239.743C159.312 239.661 159.291 239.563 159.306 239.467C159.32 239.371 159.369 239.284 159.443 239.221C159.517 239.158 159.611 239.124 159.708 239.125L170.004 240.703C170.056 240.711 170.106 240.728 170.151 240.755C170.197 240.782 170.236 240.818 170.267 240.86C170.298 240.903 170.321 240.951 170.333 241.002C170.345 241.053 170.347 241.106 170.339 241.158C170.331 241.21 170.314 241.26 170.287 241.305C170.26 241.351 170.224 241.39 170.182 241.421C170.139 241.452 170.091 241.475 170.04 241.487C169.989 241.499 169.936 241.501 169.884 241.493Z" fill="#82D5FF"/>
<path d="M166.452 242.728L159.271 241.63C159.178 241.602 159.098 241.541 159.046 241.459C158.994 241.377 158.974 241.279 158.988 241.183C159.003 241.087 159.052 241 159.125 240.937C159.199 240.874 159.294 240.84 159.391 240.841L166.572 241.939C166.665 241.967 166.745 242.027 166.797 242.11C166.849 242.192 166.869 242.29 166.854 242.386C166.84 242.482 166.791 242.569 166.717 242.632C166.643 242.695 166.549 242.729 166.452 242.728Z" fill="#82D5FF"/>
<path opacity="0.2" d="M155.858 245.925L153.491 245.563C153.196 245.518 152.92 245.72 152.875 246.015L152.513 248.382C152.468 248.677 152.671 248.953 152.966 248.998L155.332 249.36C155.627 249.405 155.903 249.202 155.948 248.907L156.31 246.541C156.355 246.246 156.153 245.97 155.858 245.925Z" fill="#82D5FF"/>
<path d="M168.709 249.18L158.413 247.602C158.308 247.585 158.215 247.528 158.152 247.443C158.09 247.358 158.063 247.251 158.078 247.147C158.085 247.095 158.103 247.045 158.13 246.999C158.157 246.954 158.192 246.915 158.235 246.884C158.277 246.853 158.325 246.83 158.377 246.818C158.428 246.806 158.481 246.804 158.533 246.812L168.872 248.391C168.924 248.398 168.974 248.416 169.019 248.443C169.064 248.47 169.103 248.506 169.135 248.548C169.166 248.59 169.188 248.638 169.2 248.69C169.213 248.741 169.215 248.794 169.206 248.846C169.2 248.902 169.181 248.957 169.151 249.005C169.121 249.054 169.082 249.096 169.034 249.128C168.987 249.159 168.933 249.181 168.877 249.19C168.821 249.199 168.763 249.196 168.709 249.18Z" fill="#82D5FF"/>
<path d="M165.294 250.416L158.112 249.318C158.06 249.31 158.01 249.293 157.965 249.266C157.92 249.239 157.88 249.203 157.849 249.161C157.818 249.118 157.796 249.07 157.783 249.019C157.771 248.968 157.769 248.915 157.778 248.863C157.785 248.811 157.803 248.761 157.83 248.716C157.856 248.67 157.892 248.631 157.935 248.6C157.977 248.569 158.025 248.546 158.076 248.534C158.127 248.522 158.18 248.52 158.232 248.528L165.414 249.626C165.518 249.643 165.611 249.701 165.674 249.786C165.737 249.871 165.763 249.977 165.748 250.081C165.741 250.133 165.723 250.183 165.697 250.229C165.67 250.274 165.634 250.313 165.591 250.344C165.549 250.375 165.501 250.398 165.45 250.41C165.399 250.422 165.346 250.424 165.294 250.416Z" fill="#82D5FF"/>
<path opacity="0.1" d="M154.683 253.621L152.316 253.259C152.021 253.214 151.745 253.416 151.7 253.711L151.338 256.078C151.293 256.373 151.496 256.649 151.791 256.694L154.157 257.056C154.452 257.101 154.728 256.898 154.773 256.603L155.135 254.237C155.18 253.942 154.978 253.666 154.683 253.621Z" fill="white"/>
<path d="M167.533 256.868L157.237 255.289C157.133 255.272 157.039 255.215 156.977 255.13C156.914 255.045 156.888 254.939 156.902 254.835C156.91 254.782 156.927 254.732 156.954 254.687C156.981 254.642 157.017 254.603 157.059 254.572C157.102 254.54 157.15 254.518 157.201 254.506C157.252 254.493 157.305 254.491 157.357 254.5L167.696 256.079C167.748 256.086 167.798 256.104 167.843 256.131C167.889 256.158 167.928 256.193 167.959 256.236C167.99 256.278 168.013 256.326 168.025 256.377C168.037 256.428 168.039 256.481 168.031 256.533C168.024 256.59 168.005 256.644 167.976 256.693C167.946 256.742 167.906 256.783 167.859 256.815C167.812 256.847 167.758 256.868 167.702 256.877C167.646 256.886 167.588 256.883 167.533 256.868Z" fill="#82D5FF"/>
<path d="M164.118 258.104L156.928 257.005C156.877 256.997 156.828 256.979 156.783 256.951C156.739 256.924 156.701 256.888 156.671 256.846C156.64 256.803 156.619 256.756 156.607 256.705C156.595 256.654 156.594 256.602 156.602 256.551C156.608 256.498 156.625 256.447 156.652 256.401C156.678 256.356 156.714 256.316 156.757 256.284C156.799 256.253 156.848 256.231 156.9 256.219C156.951 256.207 157.005 256.206 157.057 256.216L164.238 257.314C164.296 257.315 164.353 257.328 164.405 257.352C164.458 257.377 164.504 257.412 164.542 257.456C164.579 257.5 164.607 257.552 164.622 257.607C164.638 257.663 164.642 257.721 164.633 257.778C164.624 257.835 164.604 257.89 164.572 257.938C164.54 257.986 164.499 258.027 164.45 258.058C164.401 258.089 164.346 258.109 164.289 258.117C164.232 258.125 164.173 258.12 164.118 258.104Z" fill="#82D5FF"/>
<g opacity="0.1">
<path d="M324.461 237.134L194.766 217.288C194.246 217.209 193.716 217.339 193.292 217.649C192.868 217.96 192.583 218.425 192.501 218.944L191.952 222.514L191.849 223.2L191.111 228.013L191.008 228.7L190.27 233.505L190.167 234.183L189.429 238.996L189.326 239.674L188.588 244.487L188.485 245.173L187.748 249.978L187.645 250.665L186.907 255.469L186.804 256.156L186.066 260.961L185.963 261.647L185.225 266.452L185.122 267.138L184.581 270.708C184.541 270.965 184.552 271.228 184.614 271.481C184.675 271.735 184.786 271.973 184.94 272.184C185.093 272.394 185.287 272.572 185.51 272.707C185.733 272.843 185.98 272.933 186.237 272.973L315.907 292.818C316.426 292.894 316.953 292.762 317.375 292.45C317.796 292.138 318.077 291.672 318.155 291.154L318.704 287.584L318.807 286.898L319.545 282.093L319.648 281.407L320.386 276.593L320.489 275.916L321.227 271.111L321.33 270.424L322.067 265.62L322.17 264.933L322.908 260.12L323.011 259.442L323.749 254.629L323.852 253.951L324.59 249.146L324.693 248.46L325.431 243.646L325.534 242.96L326.083 239.391C326.162 238.877 326.037 238.353 325.734 237.931C325.43 237.508 324.973 237.222 324.461 237.134ZM317.511 291.051C317.459 291.388 317.275 291.69 317 291.893C316.725 292.095 316.382 292.181 316.044 292.132L186.383 272.286C186.044 272.233 185.739 272.049 185.535 271.772C185.331 271.496 185.244 271.15 185.294 270.811L185.843 267.241L318.052 287.481L317.511 291.051ZM318.164 286.761L185.946 266.529L186.684 261.716L318.893 281.956L318.164 286.761ZM319.022 281.27L186.787 261.072L187.524 256.259L319.734 276.49L319.022 281.27ZM319.88 275.778L187.662 255.538L188.4 250.733L320.609 270.965L319.88 275.778ZM320.738 270.287L188.52 250.047L189.258 245.242L321.467 265.482L320.738 270.287ZM321.596 264.796L189.378 244.556L190.116 239.742L322.325 259.983L321.596 264.796ZM322.454 259.296L190.236 239.065L190.974 234.26L323.183 254.491L322.454 259.296ZM323.312 253.805L190.991 233.608L191.729 228.803L323.938 249.034L323.312 253.805ZM324.17 248.322L191.832 228.116L192.569 223.303L324.779 243.543L324.17 248.322ZM192.801 222.582L193.35 219.022C193.375 218.854 193.433 218.693 193.521 218.548C193.608 218.403 193.723 218.277 193.86 218.177C193.996 218.076 194.151 218.004 194.315 217.963C194.479 217.923 194.65 217.915 194.817 217.941L324.324 237.82C324.66 237.873 324.962 238.057 325.163 238.332C325.364 238.607 325.448 238.951 325.396 239.288L324.847 242.857L192.801 222.582Z" fill="white"/>
</g>
<g opacity="0.1">
<path d="M338.309 144.762L117.357 110.939C117.064 110.894 116.764 110.908 116.476 110.979C116.187 111.05 115.916 111.177 115.676 111.353C115.437 111.529 115.235 111.751 115.082 112.005C114.929 112.26 114.827 112.542 114.783 112.836L102.402 193.719C102.313 194.311 102.462 194.913 102.816 195.395C103.169 195.877 103.699 196.2 104.29 196.293L325.251 230.116C325.842 230.204 326.444 230.056 326.927 229.702C327.409 229.349 327.732 228.819 327.825 228.228L340.206 147.336C340.251 147.042 340.237 146.743 340.166 146.454C340.095 146.166 339.968 145.894 339.792 145.655C339.616 145.416 339.394 145.214 339.14 145.061C338.885 144.907 338.603 144.806 338.309 144.762ZM158.129 156.388L173.47 158.73L172.132 167.447L156.765 165.096L158.129 156.388ZM156.113 164.968L140.712 162.66L142.05 153.934L157.417 156.285L156.113 164.968ZM174.174 158.85L189.549 161.201L188.211 169.927L172.844 167.576L174.174 158.85ZM253.865 170.347L238.498 167.996L239.828 159.271L255.204 161.621L253.865 170.347ZM255.881 161.767L271.257 164.118L269.918 172.844L254.551 170.493L255.881 161.767ZM206.28 163.809L221.656 166.16L220.317 174.886L204.925 172.458L206.28 163.809ZM204.264 172.389L188.897 170.038L190.201 161.304L205.577 163.655L204.264 172.389ZM222.334 166.229L237.666 168.571L236.327 177.297L220.961 174.946L222.334 166.229ZM238.387 168.683L253.762 171.034L252.424 179.76L237.057 177.409L238.387 168.683ZM237.812 167.893L222.445 165.543L223.775 156.817L239.15 159.176L237.812 167.893ZM221.759 165.44L206.392 163.089L207.722 154.363L223.08 156.705L221.759 165.44ZM205.68 163.02L190.313 160.66L191.643 151.866L207.018 154.217L205.68 163.02ZM189.618 160.515L174.251 158.164L175.581 149.438L190.956 151.789L189.618 160.515ZM188.074 170.613L186.744 179.322L171.377 176.971L172.715 168.245L188.074 170.613ZM188.76 170.716L204.127 173.067L202.788 181.793L187.421 179.442L188.76 170.716ZM204.813 173.17L220.18 175.521L218.841 184.247L203.483 181.896L204.813 173.17ZM220.866 175.624L236.233 177.984L234.895 186.701L219.528 184.35L220.866 175.624ZM236.92 178.086L252.286 180.437L250.948 189.163L235.581 186.812L236.92 178.086ZM252.973 180.54L268.339 182.891L267.001 191.617L251.634 189.266L252.973 180.54ZM253.076 179.863L254.406 171.137L269.781 173.488L268.442 182.213L253.076 179.863ZM270.459 173.591L285.834 175.941L284.496 184.667L269.129 182.316L270.459 173.591ZM286.512 176.044L301.887 178.404L300.549 187.121L285.182 184.77L286.512 176.044ZM286.623 175.367L287.953 166.641L303.337 169.026L302.016 177.718L286.623 175.367ZM285.937 175.264L270.57 172.904L271.9 164.178L287.276 166.538L285.937 175.264ZM271.986 163.5L273.324 154.775L288.691 157.126L287.43 165.851L271.986 163.5ZM271.308 163.398L255.941 161.038L257.271 152.321L272.638 154.672L271.308 163.398ZM255.255 160.935L239.88 158.584L241.218 149.858L256.585 152.209L255.255 160.935ZM239.202 158.481L223.852 156.156L225.191 147.43L240.557 149.781L239.202 158.481ZM223.149 156.019L207.808 153.668L209.137 144.942L224.504 147.301L223.149 156.019ZM207.121 153.582L191.754 151.231L193.05 142.488L208.494 144.839L207.121 153.582ZM191.068 151.128L175.693 148.777L177.031 140.051L192.398 142.428L191.068 151.128ZM175.032 148.648L159.665 146.298L160.995 137.572L176.362 139.931L175.032 148.648ZM174.929 149.335L173.591 158.061L158.224 155.71L159.554 146.984L174.929 149.335ZM157.537 155.607L142.171 153.247L143.5 144.522L158.876 146.881L157.537 155.607ZM141.484 153.144L126.126 150.793L127.456 142.068L142.831 144.419L141.484 153.144ZM141.381 153.831L140.043 162.557L124.676 160.206L126.014 151.48L141.381 153.831ZM139.94 163.269L138.601 171.995L123.235 169.644L124.573 160.918L139.94 163.269ZM140.626 163.38L155.993 165.731L154.654 174.457L139.288 172.098L140.626 163.38ZM156.679 165.834L172.029 168.168L170.69 176.894L155.298 174.526L156.679 165.834ZM170.588 177.606L169.249 186.332L153.882 183.972L155.221 175.246L170.588 177.606ZM171.274 177.709L186.641 180.06L185.328 188.76L169.953 186.409L171.274 177.709ZM187.327 180.163L202.694 182.514L201.355 191.24L185.989 188.889L187.327 180.163ZM203.346 182.582L218.79 184.933L217.451 193.659L202.042 191.334L203.346 182.582ZM219.399 185.036L234.766 187.387L233.427 196.113L218.061 193.762L219.399 185.036ZM235.452 187.49L250.819 189.85L249.481 198.567L234.114 196.216L235.452 187.49ZM251.506 189.953L266.872 192.304L265.534 201.029L250.167 198.678L251.506 189.953ZM267.559 192.406L282.96 194.766L281.621 203.492L266.255 201.141L267.559 192.406ZM267.662 191.72L269 183.003L284.401 185.328L283.063 194.054L267.662 191.72ZM285.053 185.457L300.42 187.808L299.082 196.533L283.715 194.183L285.053 185.457ZM301.158 187.902L316.525 190.253L315.186 198.979L299.82 196.628L301.158 187.902ZM301.261 187.224L302.591 178.498L317.966 180.849L316.602 189.618L301.261 187.224ZM302.702 177.786L304.032 169.06L319.408 171.411L318.052 180.18L302.702 177.786ZM304.135 168.348L305.448 159.691L320.815 162.042L319.493 170.742L304.135 168.348ZM303.457 168.237L288.082 165.886L289.421 157.16L304.77 159.588L303.457 168.237ZM289.523 156.482L290.862 147.825L306.212 150.15L304.882 158.876L289.523 156.482ZM288.846 156.37L273.47 154.02L274.809 145.294L290.176 147.653L288.846 156.37ZM272.792 153.917L257.4 151.634L258.738 142.908L274.105 145.259L272.792 153.917ZM256.739 151.463L241.364 149.112L242.702 140.386L258.069 142.737L256.739 151.463ZM240.686 149L225.294 146.718L226.632 137.992L241.999 140.343L240.686 149ZM224.633 146.546L209.258 144.195L210.579 135.564L225.946 137.915L224.633 146.546ZM208.563 144.144L193.187 141.784L194.526 133.067L209.893 135.418L208.563 144.144ZM192.509 141.682L177.134 139.331L178.464 130.622L193.839 132.99L192.509 141.682ZM176.456 139.228L161.081 136.877L162.419 128.151L177.786 130.502L176.456 139.228ZM160.446 136.782L145.002 134.431L146.34 125.706L161.707 128.065L160.446 136.782ZM160.334 137.469L159.005 146.195L143.638 143.844L144.968 135.118L160.334 137.469ZM142.951 143.741L127.585 141.381L128.914 132.664L144.281 135.015L142.951 143.741ZM126.898 141.278L111.531 138.927L112.861 130.201L128.237 132.552L126.898 141.278ZM126.795 141.965L125.457 150.691L110.09 148.34L111.42 139.614L126.795 141.965ZM125.354 151.403L124.015 160.129L108.649 157.778L109.987 149.052L125.354 151.403ZM123.912 160.841L122.574 169.567L107.207 167.216L108.546 158.49L123.912 160.841ZM122.471 170.279L121.141 178.996L105.766 176.645L107.104 167.919L122.471 170.279ZM123.157 170.382L138.524 172.733L137.194 181.458L121.819 179.107L123.157 170.382ZM139.21 172.836L154.577 175.186L153.239 183.912L137.872 181.561L139.21 172.836ZM153.136 184.599L151.806 193.325L136.422 190.888L137.76 182.162L153.136 184.599ZM153.822 184.702L169.189 187.053L167.859 195.778L152.484 193.428L153.822 184.702ZM169.832 187.044L185.199 189.403L183.869 198.121L168.494 195.77L169.832 187.044ZM185.886 189.506L201.252 191.857L199.914 200.609L184.539 198.258L185.886 189.506ZM201.939 191.96L217.306 194.311L215.976 203.037L200.6 200.686L201.939 191.96ZM217.992 194.423L233.376 196.799L232.046 205.525L216.671 203.166L217.992 194.423ZM234.045 196.877L249.412 199.228L248.082 207.953L232.707 205.603L234.045 196.877ZM250.098 199.331L265.465 201.681L264.135 210.407L248.76 208.056L250.098 199.331ZM266.152 201.793L281.518 204.204L280.188 212.93L264.813 210.579L266.152 201.793ZM282.205 204.247L297.572 206.598L296.242 215.358L280.866 213.007L282.205 204.247ZM282.308 203.56L283.646 194.835L299.013 197.194L297.674 205.92L282.308 203.56ZM299.699 197.34L315.066 199.691L313.728 208.417L298.361 206.066L299.699 197.34ZM315.744 199.777L331.111 202.128L329.772 210.853L314.414 208.494L315.744 199.777ZM315.847 199.099L317.185 190.373L332.552 192.724L331.188 201.45L315.847 199.099ZM317.288 189.661L318.618 180.935L333.994 183.286L332.655 192.012L317.288 189.661ZM318.73 180.223L320.034 171.6L335.478 173.908L334.148 182.634L318.73 180.223ZM320.163 170.785L321.51 162.162L336.877 164.513L335.547 173.239L320.163 170.785ZM321.604 161.347L322.951 152.724L338.318 155.075L336.988 163.801L321.604 161.347ZM320.926 161.244L305.551 158.893L306.889 150.167L322.256 152.518L320.926 161.244ZM306.992 149.481L308.331 140.763L323.698 143.114L322.359 151.84L306.992 149.481ZM306.306 149.378L290.939 147.027L292.278 138.301L307.644 140.652L306.306 149.378ZM290.253 146.924L274.886 144.573L276.276 135.959L291.643 138.31L290.253 146.924ZM274.2 144.47L258.833 142.111L260.171 133.393L275.538 135.744L274.2 144.47ZM258.146 142.008L242.814 139.768L244.152 131.042L259.519 133.393L258.146 142.008ZM242.093 139.554L226.735 137.28L228.074 128.554L243.44 130.905L242.093 139.554ZM226.04 137.091L210.673 134.74L212.02 126.126L227.37 128.485L226.04 137.091ZM209.995 134.637L194.62 132.286L195.959 123.561L211.325 125.911L209.995 134.637ZM193.942 132.183L178.567 129.824L179.905 121.107L195.281 123.552L193.942 132.183ZM177.881 129.721L162.514 127.37L163.878 118.756L179.245 121.107L177.881 129.721ZM161.836 127.267L146.461 124.916L147.799 116.19L163.166 118.541L161.836 127.267ZM145.783 124.813L130.416 122.565L131.754 113.848L147.121 116.199L145.783 124.813ZM145.671 125.491L144.341 134.217L128.966 131.866L130.304 123.14L145.671 125.491ZM128.288 131.763L112.921 129.558L114.26 120.832L129.627 123.183L128.288 131.763ZM105.62 177.246L120.978 179.597L119.648 188.322L104.273 185.971L105.62 177.246ZM121.673 179.7L137.04 182.05L135.71 190.776L120.334 188.425L121.673 179.7ZM135.564 191.463L134.234 200.189L118.867 197.838L120.197 189.112L135.564 191.463ZM136.25 191.566L151.651 193.908L150.322 202.634L134.955 200.283L136.25 191.566ZM152.304 194.028L167.67 196.379L166.34 205.105L151.008 202.745L152.304 194.028ZM168.391 196.482L183.758 198.833L182.428 207.559L167.053 205.208L168.391 196.482ZM184.47 198.936L199.837 201.295L198.507 210.013L183.114 207.636L184.47 198.936ZM200.523 201.398L215.89 203.749L214.5 212.475L199.133 210.124L200.523 201.398ZM216.576 203.852L231.943 206.203L230.613 214.929L215.238 212.578L216.576 203.852ZM232.63 206.306L247.962 208.666L246.632 217.383L231.257 215.032L232.63 206.306ZM248.683 208.769L264.049 211.119L262.72 219.845L247.344 217.494L248.683 208.769ZM264.736 211.222L280.103 213.573L278.773 222.299L263.406 219.948L264.736 211.222ZM280.789 213.685L296.156 216.036L294.8 224.796L279.425 222.436L280.789 213.685ZM296.842 216.139L312.209 218.49L310.879 227.216L295.504 224.865L296.842 216.139ZM296.945 215.452L298.284 206.727L313.65 209.086L312.312 217.803L296.945 215.452ZM314.337 209.189L329.704 211.54L328.374 220.266L312.973 217.932L314.337 209.189ZM339.545 147.233L338.421 154.44L323.054 152.089L324.393 143.363L338.206 145.474C338.612 145.538 338.976 145.757 339.221 146.086C339.466 146.415 339.573 146.826 339.519 147.233H339.545ZM117.323 111.626L131.137 113.736L129.807 122.462L114.363 120.12L115.461 112.947C115.491 112.742 115.562 112.546 115.669 112.368C115.775 112.191 115.916 112.036 116.083 111.913C116.249 111.791 116.439 111.702 116.64 111.653C116.841 111.603 117.05 111.594 117.254 111.626H117.323ZM103.149 193.822L104.247 186.649L119.614 189.009L118.284 197.726L104.393 195.624C103.98 195.559 103.61 195.332 103.364 194.994C103.118 194.657 103.016 194.235 103.08 193.822H103.149ZM325.354 229.438L311.531 227.319L312.87 218.593L328.236 220.944L327.138 228.125C327.075 228.535 326.851 228.904 326.517 229.15C326.182 229.396 325.764 229.499 325.354 229.438Z" fill="white"/>
</g>
<path opacity="0.5" d="M331.016 202.814L327.138 228.108C327.109 228.304 327.041 228.492 326.939 228.661C326.837 228.831 326.702 228.978 326.542 229.095C326.383 229.213 326.202 229.297 326.01 229.344C325.817 229.391 325.618 229.4 325.422 229.369L104.341 195.53C104.146 195.499 103.959 195.431 103.791 195.328C103.622 195.225 103.476 195.091 103.359 194.931C103.243 194.772 103.159 194.591 103.113 194.399C103.066 194.208 103.058 194.009 103.089 193.814L103.603 190.433C103.603 190.433 113.994 182.059 120.497 183.054C128.177 184.23 129.558 188.588 136.422 189.618C143.286 190.648 150.802 174.775 157.014 175.718C160.369 176.233 161.227 178.816 162.866 181.184C163.569 182.273 164.501 183.194 165.598 183.885C166.695 184.576 167.929 185.018 169.215 185.182L169.472 185.225C177.881 186.512 189.258 141.879 200.823 143.646C205.971 144.427 208.005 154.277 209.541 165.156C211.488 178.884 212.587 194.328 217.949 195.109C227.542 196.576 230.819 177.091 239.725 178.49C245.328 179.348 247.37 189.73 252.089 197.958C254.877 202.823 258.61 206.941 264.581 207.85C270.013 208.708 273.642 207.421 276.465 205.44C281.999 201.57 284.47 194.963 291.385 196.002C295.487 196.628 296.979 199.785 298.507 202.763C299.837 205.337 301.192 207.825 304.35 208.305C308.065 208.88 311.214 203.56 314.586 198.867C317.34 194.989 320.214 191.506 323.629 192.003C327.044 192.501 329.189 196.731 330.227 199.725C330.551 200.738 330.814 201.77 331.016 202.814Z" fill="#82D5FF"/>
<path opacity="0.5" d="M336.336 168.056L327.138 228.116C327.109 228.312 327.041 228.5 326.939 228.67C326.837 228.839 326.702 228.987 326.542 229.104C326.383 229.221 326.202 229.306 326.01 229.353C325.817 229.4 325.618 229.408 325.422 229.378L104.341 195.53C104.146 195.499 103.959 195.431 103.791 195.328C103.622 195.226 103.476 195.091 103.359 194.931C103.243 194.772 103.159 194.591 103.113 194.399C103.066 194.208 103.058 194.009 103.089 193.814L103.603 190.433C112.784 191.84 117.683 184.968 123.844 185.911C130.004 186.855 133.196 191.154 138.962 192.038C144.727 192.921 153.625 179.425 159.931 180.395C160.92 180.538 161.886 180.809 162.805 181.201C165.234 182.213 166.907 183.844 169.155 185.199C170.924 186.272 172.89 186.978 174.938 187.276C182.325 188.4 197.108 161.664 205.68 162.977C207.163 163.245 208.507 164.022 209.481 165.174C214.543 170.691 215.847 184.487 222.986 185.577C231.643 186.907 236.276 172.827 244.676 174.105C253.076 175.384 255.547 189.867 265.268 191.351C274.989 192.836 285.534 166.272 295.632 167.816C305.731 169.361 308.614 183.011 317.391 184.35C327.027 185.826 336.336 168.056 336.336 168.056Z" fill="#82D5FF"/>
<path d="M332.046 195.976L327.121 228.108C327.092 228.304 327.024 228.492 326.922 228.661C326.82 228.831 326.685 228.978 326.525 229.095C326.366 229.213 326.185 229.297 325.992 229.344C325.8 229.391 325.601 229.4 325.405 229.369L104.341 195.53C104.146 195.499 103.959 195.431 103.791 195.328C103.622 195.225 103.476 195.091 103.359 194.931C103.243 194.772 103.159 194.591 103.113 194.399C103.066 194.208 103.058 194.009 103.089 193.814L103.337 192.158C103.655 191.857 108.863 186.941 114.148 187.748C119.614 188.606 119.631 193.479 127.25 194.612C134.869 195.744 137.091 189.747 147.902 191.403C158.713 193.059 158.678 200.618 169.858 202.334C181.038 204.05 183.346 194.98 191.308 196.199C199.27 197.417 198.713 202.042 203.226 202.728C207.739 203.415 210.364 196.345 215.916 197.194C221.467 198.044 225.714 209.678 231.969 210.639C236.362 211.308 244.127 202.608 252.055 197.941C255.401 195.967 258.79 194.715 261.947 195.204C268.477 196.199 272.286 201.295 276.43 205.422C279.004 207.996 281.776 210.227 285.396 210.785C290.544 211.574 294.5 206.89 298.472 202.771C301.698 199.416 304.95 196.431 308.906 197.031C310.884 197.283 312.798 197.9 314.551 198.85C317.983 200.772 318.884 203.363 322.985 203.998C327.919 204.779 332.046 195.976 332.046 195.976Z" fill="#82D5FF"/>
<path d="M130.459 108.331L118.584 106.512C118.31 106.47 118.046 106.375 117.808 106.231C117.571 106.087 117.364 105.897 117.2 105.673C117.036 105.449 116.917 105.195 116.852 104.926C116.786 104.656 116.774 104.376 116.817 104.101C116.901 103.546 117.203 103.047 117.655 102.714C118.107 102.381 118.672 102.241 119.228 102.325L131.094 104.144C131.648 104.231 132.145 104.533 132.478 104.984C132.81 105.436 132.951 106 132.87 106.555C132.783 107.109 132.481 107.606 132.03 107.939C131.578 108.272 131.014 108.412 130.459 108.331Z" fill="#82D5FF"/>
<path d="M137.014 105.937H137.203L149.077 107.756C149.246 107.778 149.409 107.833 149.557 107.918C149.704 108.004 149.833 108.118 149.935 108.254C150.13 108.524 150.213 108.859 150.167 109.189C150.119 109.486 149.968 109.755 149.74 109.952C149.513 110.148 149.223 110.257 148.923 110.262H148.726L136.86 108.443C136.69 108.424 136.526 108.37 136.378 108.284C136.23 108.199 136.102 108.083 136.002 107.945C135.863 107.758 135.779 107.536 135.759 107.305C135.74 107.073 135.785 106.84 135.89 106.633C135.995 106.425 136.156 106.251 136.354 106.13C136.553 106.008 136.781 105.945 137.014 105.946M137.014 105.088C136.473 105.074 135.946 105.269 135.544 105.632C135.143 105.995 134.896 106.499 134.855 107.039C134.814 107.579 134.983 108.114 135.325 108.534C135.668 108.953 136.159 109.225 136.697 109.292L148.563 111.111C148.671 111.12 148.78 111.12 148.889 111.111C149.421 111.108 149.933 110.905 150.322 110.542C150.712 110.178 150.95 109.682 150.99 109.151C151.03 108.62 150.869 108.093 150.538 107.676C150.208 107.259 149.732 106.981 149.206 106.898L137.331 105.088C137.226 105.079 137.12 105.079 137.014 105.088Z" fill="#82D5FF"/>
<path d="M155.118 108.709H155.298L167.164 110.528C167.475 110.579 167.755 110.745 167.95 110.993C168.144 111.241 168.239 111.552 168.215 111.867C168.192 112.181 168.051 112.475 167.822 112.69C167.592 112.906 167.29 113.028 166.975 113.033H166.787L154.912 111.214C154.743 111.193 154.58 111.138 154.432 111.052C154.285 110.967 154.156 110.853 154.054 110.716C153.957 110.583 153.887 110.432 153.848 110.271C153.81 110.111 153.804 109.944 153.831 109.781C153.877 109.486 154.027 109.217 154.254 109.023C154.48 108.828 154.768 108.72 155.066 108.717M155.066 107.859C154.525 107.845 153.999 108.04 153.597 108.403C153.195 108.766 152.948 109.27 152.907 109.81C152.866 110.35 153.035 110.885 153.378 111.305C153.72 111.724 154.211 111.996 154.749 112.063L166.624 113.882C166.729 113.891 166.835 113.891 166.941 113.882C167.474 113.879 167.985 113.676 168.375 113.313C168.764 112.95 169.003 112.453 169.043 111.922C169.083 111.391 168.921 110.865 168.591 110.447C168.26 110.03 167.785 109.752 167.258 109.67L155.392 107.859C155.284 107.851 155.175 107.851 155.066 107.859Z" fill="#82D5FF"/>
<path d="M339.991 138.49L340.137 137.563L339.45 137.4C339.435 137.247 339.397 137.097 339.339 136.954L339.871 136.491L339.322 135.736L338.713 136.105C338.594 136.01 338.464 135.929 338.327 135.864L338.369 135.161L337.443 135.023L337.28 135.71C337.13 135.726 336.983 135.76 336.842 135.813L336.37 135.281L335.615 135.839L335.984 136.439C335.889 136.559 335.811 136.692 335.753 136.834L335.049 136.782L334.903 137.709L335.589 137.881C335.605 138.031 335.643 138.178 335.701 138.318L335.169 138.781L335.727 139.537L336.327 139.168C336.448 139.261 336.577 139.341 336.713 139.408L336.671 140.111L337.597 140.249L337.76 139.571C337.912 139.547 338.061 139.51 338.206 139.459L338.67 139.991L339.425 139.434L339.056 138.833C339.149 138.715 339.227 138.585 339.287 138.447L339.991 138.49ZM337.357 138.713C337.144 138.68 336.946 138.584 336.787 138.438C336.628 138.293 336.516 138.103 336.466 137.894C336.415 137.684 336.427 137.464 336.501 137.262C336.575 137.06 336.707 136.884 336.881 136.756C337.055 136.629 337.263 136.557 337.478 136.547C337.694 136.538 337.907 136.593 338.091 136.705C338.275 136.817 338.422 136.982 338.513 137.177C338.603 137.372 338.634 137.59 338.601 137.803C338.579 137.945 338.529 138.08 338.455 138.203C338.381 138.325 338.283 138.431 338.167 138.516C338.052 138.6 337.921 138.661 337.782 138.695C337.643 138.729 337.498 138.735 337.357 138.713Z" fill="#82D5FF"/>
<path opacity="0.2" d="M206.543 240.589L204.016 240.203L201.239 258.352L203.766 258.739L206.543 240.589Z" fill="#82D5FF"/>
<path d="M206.126 243.316L203.599 242.93L202.292 251.47L204.82 251.857L206.126 243.316Z" fill="#82D5FF"/>
<path opacity="0.2" d="M200.17 244.291L197.643 243.905L194.865 262.055L197.393 262.441L200.17 244.291Z" fill="#82D5FF"/>
<path d="M196.888 248.686L195.58 257.235L198.107 257.622L199.415 249.073L196.888 248.686Z" fill="#82D5FF"/>
<path opacity="0.2" d="M195.604 240.058L193.073 239.674L190.319 257.852L192.85 258.235L195.604 240.058Z" fill="#82D5FF"/>
<path d="M193.963 246.773L191.436 246.386L190.127 254.936L192.655 255.322L193.963 246.773Z" fill="#82D5FF"/>
<path opacity="0.2" d="M211.679 245.038L209.152 244.651L206.375 262.801L208.902 263.188L211.679 245.038Z" fill="#82D5FF"/>
<path d="M211.271 247.765L208.744 247.378L207.436 255.927L209.963 256.314L211.271 247.765Z" fill="#82D5FF"/>
<path opacity="0.2" d="M218.179 240.539L215.652 240.152L212.874 258.302L215.402 258.689L218.179 240.539Z" fill="#82D5FF"/>
<path d="M217.865 242.586L215.338 242.2L214.029 250.749L216.557 251.135L217.865 242.586Z" fill="#82D5FF"/>
<path opacity="0.2" d="M223.151 246.092L220.624 245.705L217.846 263.855L220.374 264.242L223.151 246.092Z" fill="#82D5FF"/>
<path d="M223.041 246.779L220.513 246.392L219.205 254.941L221.733 255.328L223.041 246.779Z" fill="#82D5FF"/>
<path opacity="0.2" d="M230.276 237.471L227.749 237.084L224.972 255.234L227.499 255.621L230.276 237.471Z" fill="#82D5FF"/>
<path d="M230.182 238.159L227.654 237.772L226.348 246.313L228.875 246.7L230.182 238.159Z" fill="#82D5FF"/>
<path opacity="0.2" d="M234.213 249.773L231.686 249.386L228.908 267.536L231.436 267.923L234.213 249.773Z" fill="#82D5FF"/>
<path d="M233.796 252.509L231.269 252.122L229.961 260.671L232.488 261.058L233.796 252.509Z" fill="#82D5FF"/>
<path opacity="0.2" d="M239.735 251.702L237.207 251.315L234.43 269.465L236.957 269.852L239.735 251.702Z" fill="#82D5FF"/>
<path d="M238.688 258.541L236.16 258.155L234.852 266.704L237.379 267.091L238.688 258.541Z" fill="#82D5FF"/>
<path opacity="0.2" d="M247.171 241.165L244.643 240.778L241.866 258.928L244.393 259.315L247.171 241.165Z" fill="#82D5FF"/>
<path d="M246.012 248.695L243.485 248.308L242.178 256.849L244.705 257.235L246.012 248.695Z" fill="#82D5FF"/>
<path opacity="0.2" d="M251.623 250.026L249.095 249.64L246.318 267.79L248.845 268.176L251.623 250.026Z" fill="#82D5FF"/>
<path d="M251.095 253.451L248.567 253.064L247.26 261.605L249.788 261.992L251.095 253.451Z" fill="#82D5FF"/>
<path opacity="0.2" d="M258.029 246.158L255.501 245.772L252.724 263.922L255.252 264.308L258.029 246.158Z" fill="#82D5FF"/>
<path d="M258.313 248.945L255.781 248.561L254.484 257.123L257.015 257.507L258.313 248.945Z" fill="#82D5FF"/>
<path opacity="0.2" d="M264.963 238.874L262.435 238.487L259.658 256.637L262.185 257.024L264.963 238.874Z" fill="#82D5FF"/>
<path d="M264.954 238.881L262.426 238.494L261.118 247.043L263.645 247.43L264.954 238.881Z" fill="#82D5FF"/>
<path opacity="0.2" d="M268.889 251.242L266.362 250.856L263.584 269.005L266.112 269.392L268.889 251.242Z" fill="#82D5FF"/>
<path d="M268.566 253.298L266.039 252.911L264.731 261.46L267.258 261.847L268.566 253.298Z" fill="#82D5FF"/>
<path opacity="0.2" d="M273.343 260.095L270.815 259.708L268.038 277.858L270.565 278.245L273.343 260.095Z" fill="#82D5FF"/>
<path d="M273.028 262.142L270.501 261.755L269.193 270.305L271.72 270.691L273.028 262.142Z" fill="#82D5FF"/>
<path opacity="0.2" d="M280.493 251.358L277.966 250.971L275.188 269.121L277.716 269.508L280.493 251.358Z" fill="#82D5FF"/>
<path d="M279.455 258.182L276.927 257.795L275.619 266.344L278.146 266.731L279.455 258.182Z" fill="#82D5FF"/>
<path opacity="0.2" d="M287.751 241.968L285.224 241.581L282.446 259.731L284.974 260.118L287.751 241.968Z" fill="#82D5FF"/>
<path d="M286.49 250.168L283.963 249.781L282.654 258.33L285.182 258.717L286.49 250.168Z" fill="#82D5FF"/>
<path opacity="0.2" d="M291.863 253.092L289.336 252.705L286.559 270.855L289.086 271.242L291.863 253.092Z" fill="#82D5FF"/>
<path d="M292.215 255.838L289.684 255.454L288.387 264.016L290.918 264.4L292.215 255.838Z" fill="#82D5FF"/>
<path opacity="0.2" d="M297.074 256.985L294.547 256.598L291.769 274.748L294.297 275.135L297.074 256.985Z" fill="#82D5FF"/>
<path d="M295.933 264.506L293.406 264.12L292.097 272.669L294.625 273.055L295.933 264.506Z" fill="#82D5FF"/>
<path opacity="0.2" d="M303.627 252.188L301.1 251.801L298.323 269.951L300.85 270.338L303.627 252.188Z" fill="#82D5FF"/>
<path d="M303.627 252.196L301.1 251.809L299.791 260.358L302.319 260.745L303.627 252.196Z" fill="#82D5FF"/>
<path opacity="0.2" d="M308.444 258.719L305.917 258.332L303.14 276.482L305.667 276.869L308.444 258.719Z" fill="#82D5FF"/>
<path d="M308.232 260.086L305.704 259.699L304.396 268.249L306.923 268.635L308.232 260.086Z" fill="#82D5FF"/>
<path opacity="0.2" d="M314.508 257.14L311.981 256.753L309.203 274.903L311.731 275.29L314.508 257.14Z" fill="#82D5FF"/>
<path d="M314.398 257.827L311.87 257.44L310.562 265.989L313.09 266.376L314.398 257.827Z" fill="#82D5FF"/>
<path opacity="0.2" d="M319.823 260.344L317.295 259.958L314.518 278.107L317.046 278.494L319.823 260.344Z" fill="#82D5FF"/>
<path d="M319.294 269.229L316.763 268.845L315.466 277.407L317.997 277.791L319.294 269.229Z" fill="#82D5FF"/>
<path d="M228.056 285.553L180.459 278.269L180.233 279.745L227.83 287.028L228.056 285.553Z" fill="#999999" stroke="#263238" stroke-linecap="round" stroke-linejoin="round"/>
<path opacity="0.2" d="M258.309 181.793C258.309 181.793 251.857 185.371 255.967 195.066C260.077 204.762 285.07 220.703 284.564 228.803C284.564 228.803 258.901 212.81 251.771 222.042C251.771 222.042 271.154 240.841 273.17 254.98C275.186 269.12 281.75 275.392 296.919 283.457C312.089 291.523 345.07 334.079 345.07 334.079L340.137 262.608L292.089 208.382L268.339 194.843L258.309 181.793Z" fill="black" fill-opacity="0.7"/>
<path d="M388.674 309.223L346.375 337.005H346.306C346.267 337.003 346.229 336.99 346.197 336.967C346.165 336.944 346.14 336.913 346.126 336.877C345.937 336.379 327.25 286.435 322.745 282.539C320.209 280.247 318.361 277.294 317.409 274.011C317.409 274.011 317.409 273.968 317.409 273.942C317.245 273.393 317.168 273.033 317.151 272.938C314.663 267.878 310.846 263.59 306.109 260.532C302.942 258.613 299.597 257.004 296.122 255.727C290.802 253.573 285.328 251.351 281.458 247.241C280.795 246.539 280.19 245.784 279.648 244.985C273.496 235.976 263.998 226.032 260.832 223.989C257.666 221.947 251.84 222.222 251.789 222.222C251.741 222.227 251.694 222.214 251.655 222.185C251.617 222.157 251.591 222.115 251.583 222.068C251.48 221.282 251.551 220.484 251.791 219.729C252.031 218.974 252.435 218.282 252.973 217.7C253.781 216.755 254.785 215.997 255.916 215.479C257.046 214.96 258.276 214.694 259.519 214.697C264.41 214.697 271.145 217.271 274.543 220.506C277.941 223.741 285.8 226.117 286.701 226.392C287.979 225.637 290.991 227.25 292.098 227.945C290.785 223.269 291.317 221.467 291.523 221.012C288.708 217.366 274.054 206.572 266.272 201.158C264.127 199.657 262.514 198.584 261.81 198.164C258.181 196.027 255.178 189.343 255.761 184.676C255.79 184.042 255.958 183.422 256.255 182.862C256.552 182.301 256.969 181.813 257.477 181.433C258.207 180.974 259.062 180.755 259.923 180.806C260.272 180.815 260.62 180.858 260.961 180.935C260.995 180.95 261.027 180.97 261.055 180.995C261.124 181.089 268.408 189.73 270.931 191.085C272.166 191.746 278.738 195.066 284.985 198.155L287.799 199.545C287.782 196.825 287.925 194.106 288.228 191.403C288.468 190.339 290.167 188.829 292.098 187.971C292.998 187.559 294.671 186.967 295.898 187.619C296.37 187.885 297.486 188.571 299.03 189.532L301.604 191.128C302.152 190.286 302.823 189.531 303.595 188.889C304.238 188.511 307.799 187.851 309.069 188.297C310.176 188.7 313.728 190.956 317.486 193.342L319.107 194.363C319.305 193.994 319.768 193.222 320.206 193.05C322.061 192.365 324.08 192.257 325.997 192.741C327.267 193.204 331.626 196.422 335.847 199.536C338.164 201.252 340.386 202.891 341.853 203.878C341.902 203.891 341.945 203.921 341.973 203.964C342.393 204.247 342.745 204.47 343.011 204.624C346.117 206.4 353.753 246.452 353.831 246.855C354.328 249.541 356.147 252.312 358.069 255.246C360.244 258.301 362.023 261.62 363.363 265.122C365.808 272.269 371.377 282.728 379.536 295.512C380.274 296.656 381.035 297.832 381.819 299.039C384.024 302.376 386.375 305.86 388.674 309.223Z" fill="white"/>
<path opacity="0.4" d="M294.414 232.518C292.775 233.814 280.883 232.587 279.425 236.585C278.567 238.944 279.202 242.514 281.433 247.224C280.77 246.522 280.164 245.767 279.622 244.968C273.47 235.959 263.972 226.014 260.806 223.972C257.64 221.93 251.84 222.222 251.789 222.222C251.741 222.227 251.694 222.214 251.655 222.185C251.617 222.157 251.591 222.115 251.583 222.068C251.48 221.282 251.551 220.484 251.791 219.729C252.031 218.974 252.435 218.282 252.973 217.7C253.781 216.755 254.785 215.997 255.916 215.479C257.046 214.96 258.276 214.694 259.519 214.697C264.41 214.697 271.145 217.271 274.543 220.506C277.941 223.741 285.8 226.117 286.701 226.392C287.979 225.637 290.991 227.25 292.098 227.945C290.785 223.269 291.317 221.467 291.523 221.012C288.708 217.366 274.054 206.572 266.272 201.158C264.127 199.657 262.514 198.584 261.81 198.164C258.181 196.027 255.178 189.343 255.761 184.676C255.79 184.042 255.958 183.422 256.255 182.862C256.552 182.301 256.969 181.813 257.477 181.433C258.207 180.974 259.062 180.755 259.923 180.806C259.332 181.037 258.787 181.368 258.309 181.784C255.924 183.818 261.613 194.552 264.813 197.52C268.159 200.618 283.209 208.305 288.614 212.887C291.583 215.401 295.478 219.21 295.478 219.21C293.101 223.26 296.01 231.248 294.414 232.518Z" fill="#82D5FF"/>
<path d="M349.669 166.907C349.669 166.83 349.669 166.812 349.669 166.847C349.676 166.856 349.679 166.866 349.679 166.877C349.679 166.888 349.676 166.898 349.669 166.907Z" fill="#82D5FF"/>
<path opacity="0.4" d="M379.536 295.469C373.161 289.403 363.672 279.957 361.896 275.813C359.185 269.463 357.374 263.603 354.002 259.33C350.63 255.058 343.792 209.524 341.827 209.395C339.862 209.266 344.298 227.413 344.53 228.34C344.341 227.765 341.887 220.034 339.536 211.222C337.1 202.068 334.637 201.57 334.637 201.57C331.368 202.222 331.351 204.547 329.678 204.513C328.005 204.479 322.265 200.403 322.265 200.403C316.696 201.21 295.804 187.756 295.804 187.756C291.051 188.4 289.935 192.552 293.994 196.448C298.052 200.343 304.118 205.062 304.118 205.062C300.206 206.967 285.843 198.91 285.843 198.91L284.985 198.138L287.799 199.528C287.782 196.808 287.925 194.089 288.228 191.385C288.468 190.322 290.167 188.811 292.098 187.953C292.998 187.542 294.672 186.95 295.898 187.602C296.37 187.868 297.486 188.554 299.03 189.515L301.604 191.111C302.152 190.269 302.823 189.514 303.595 188.872C304.238 188.494 307.799 187.833 309.069 188.28C310.176 188.683 313.728 190.939 317.486 193.325L319.107 194.346C319.305 193.977 319.768 193.204 320.206 193.033C322.061 192.348 324.08 192.24 325.997 192.724C327.267 193.187 331.626 196.405 335.847 199.519C338.164 201.235 340.386 202.874 341.853 203.861C341.902 203.874 341.945 203.904 341.973 203.947C342.393 204.23 342.745 204.453 343.011 204.607C346.117 206.383 353.753 246.435 353.831 246.838C354.328 249.524 356.147 252.295 358.069 255.229C360.245 258.29 362.024 261.614 363.363 265.122C365.808 272.226 371.377 282.685 379.536 295.469Z" fill="#82D5FF"/>
<path d="M346.306 336.834C346.306 336.834 327.43 286.383 322.874 282.419C320.069 279.884 318.126 276.537 317.314 272.844C314.808 267.734 310.951 263.407 306.16 260.334C298.018 254.972 285.705 253.582 279.751 244.89C273.796 236.199 264.255 226.014 260.875 223.835C257.494 221.656 251.737 222.05 251.737 222.05C251.145 218.67 254.912 214.903 259.459 214.903C264.007 214.903 270.776 217.28 274.354 220.66C277.932 224.041 286.666 226.615 286.666 226.615C288.056 225.62 292.355 228.382 292.355 228.382C290.639 222.574 291.677 221.004 291.677 221.004C288.305 216.439 265.216 200.008 261.844 198.018C258.472 196.027 255.289 189.481 255.881 184.71C255.896 184.118 256.048 183.537 256.325 183.013C256.602 182.489 256.996 182.036 257.478 181.69C257.959 181.344 258.514 181.115 259.099 181.019C259.684 180.924 260.283 180.966 260.849 181.141C260.849 181.141 268.194 189.875 270.776 191.265C273.359 192.655 293.616 202.788 296.593 203.972C297.42 204.325 298.32 204.473 299.216 204.404C300.112 204.336 300.978 204.052 301.741 203.578" stroke="#263238" stroke-linecap="round" stroke-linejoin="round"/>
<path d="M287.988 199.854C287.988 199.854 287.988 193.247 288.417 191.454C288.846 189.661 293.625 186.572 295.804 187.756C297.983 188.94 314.079 199.528 318.275 200" stroke="#263238" stroke-linecap="round" stroke-linejoin="round"/>
<path d="M301.664 191.334C302.234 190.463 302.921 189.675 303.706 188.992C304.298 188.64 307.825 187.988 309.017 188.417C311.402 189.275 325.457 198.97 327.833 199.571" stroke="#263238" stroke-linecap="round" stroke-linejoin="round"/>
<path d="M319.176 194.612C319.176 194.612 319.785 193.393 320.274 193.196C322.085 192.524 324.057 192.42 325.928 192.896C328.116 193.694 340.128 203.192 342.908 204.762C345.688 206.332 352.647 241.501 353.633 246.864C354.62 252.226 360.592 257.589 363.166 265.139C365.74 272.69 371.909 284.204 381.638 299.099C383.354 301.673 385.139 304.393 386.932 307.018" stroke="#263238" stroke-linecap="round" stroke-linejoin="round"/>
<path d="M300.231 213.848C300.231 213.848 301.089 209.824 303.509 208.039C305.928 206.255 309.172 209.086 311.548 209.378" stroke="#263238" stroke-linecap="round" stroke-linejoin="round"/>
<path d="M316.465 207.447C316.465 207.447 317.803 202.823 320.188 201.784C322.574 200.746 326.246 203.869 327.833 204.015" stroke="#263238" stroke-linecap="round" stroke-linejoin="round"/>
<path d="M332.106 203.269C332.106 203.269 333.891 201.553 334.637 201.553C335.384 201.553 338.507 204.822 339.185 205.045C339.862 205.268 340.669 204.041 341.827 204.024" stroke="#263238" stroke-linecap="round" stroke-linejoin="round"/>
<path d="M326.675 199.056C327.979 198.959 329.281 199.281 330.39 199.974" stroke="#263238" stroke-linecap="round" stroke-linejoin="round"/>
<path d="M291.72 220.995C291.72 220.995 290.536 217.941 291.128 216.379" stroke="#263238" stroke-linecap="round" stroke-linejoin="round"/>
<path d="M294.045 198.584C294.045 198.584 295.461 200.24 295.538 201.57C295.615 202.9 298.97 204.513 298.97 204.513" stroke="#263238" stroke-linecap="round" stroke-linejoin="round"/>
<path d="M316.756 199.597C316.756 199.597 318.704 198.902 319.742 199.597" stroke="#263238" stroke-linecap="round" stroke-linejoin="round"/>
<path d="M291.72 225.019C291.654 224.038 291.829 223.055 292.232 222.157C292.634 221.26 293.251 220.475 294.028 219.871" stroke="#263238" stroke-linecap="round" stroke-linejoin="round"/>
<path d="M292.415 228.374C292.415 228.374 290.201 230.279 290.201 231.471" stroke="#263238" stroke-linecap="round" stroke-linejoin="round"/>
<path d="M282.222 225.019C284.847 225.997 287.027 230.081 288.614 230.776" stroke="#263238" stroke-linecap="round" stroke-linejoin="round"/>
<path d="M314.028 212.012C315.615 214.294 319.176 230.888 322.762 236.139" stroke="#263238" stroke-linecap="round" stroke-linejoin="round"/>
<path d="M327.344 207.327C327.644 207.524 329.729 213.977 329.729 213.977" stroke="#263238" stroke-linecap="round" stroke-linejoin="round"/>
<path d="M354.002 248.211C354.525 251.512 355.477 254.731 356.834 257.786" stroke="#263238" stroke-linecap="round" stroke-linejoin="round"/>
<path d="M317.58 273.968C317.314 272.878 316.164 265.731 314.749 263.346" stroke="#263238" stroke-linecap="round" stroke-linejoin="round"/>
<path opacity="0.2" d="M77.1256 385.491C77.1256 385.491 105.045 347.953 126.1 341.081C147.156 334.208 148.194 324.882 147.336 307.481C146.478 290.081 147.113 272.544 141.33 270.45C135.547 268.357 148.262 245.637 142.188 236.636L102.351 299.219L77.1256 385.491Z" fill="black" fill-opacity="0.7"/>
<path d="M70.356 395.95L69.9356 395.813L70.5362 396.147L70.356 395.95ZM138.224 280.798C134.792 279.193 127.979 271.669 127.13 270.725C131.42 263.5 135.658 256.533 137.126 254.86C140.171 251.428 143.887 241.415 142.377 236.576C140.995 232.132 136.473 232.844 135.856 232.964H135.787C135.764 232.968 135.742 232.976 135.722 232.99C135.703 233.003 135.687 233.021 135.676 233.041C135.581 233.204 126.375 248.726 123.518 252.441C122.153 254.208 119.013 258.232 115.796 262.265L114.843 262.119C112.848 261.808 110.812 261.866 108.837 262.291L108.64 262.359C107.619 262.8 106.635 263.322 105.697 263.921L105.019 263.638C103.664 263.071 100.858 261.982 99.528 261.922C97.9064 261.836 92.1921 264.496 88.7773 266.641C86.4231 265.926 83.9696 265.593 81.51 265.654C78.8931 265.765 73.5564 267.936 69.2664 269.678C67.3616 270.45 65.7142 271.119 64.7533 271.394L63.8953 271.651C61.3213 272.415 59.9313 272.844 58.1467 276.413C56.2934 280.12 54.2943 293.942 53.3333 300.583L53.2046 301.484C52.8357 304.058 52.8957 308.571 52.9558 313.385C53.0502 320.077 53.1445 326.992 52.1493 329.687C50.8048 333.081 49.0284 336.287 46.864 339.227C46.5808 339.631 46.3234 340.008 46.0832 340.369C44.7436 342.459 43.6741 344.711 42.9 347.07C42.1793 348.974 41.2784 351.068 40.4032 352.981C38.7902 356.525 37.2887 359.451 37.2887 359.451C37.2887 359.451 67.7048 393.007 70.356 395.95C70.4989 396.005 70.645 396.051 70.7936 396.087C70.8966 395.916 76.5079 386.323 82.4538 376.859C87.6018 368.691 92.9472 360.617 95.238 358.764C98.3794 356.069 100.664 352.514 101.81 348.537C103.046 344.564 110.931 339.665 118.558 334.929C126.993 329.695 135.718 324.281 136.01 319.802C136.173 317.486 136.705 313.65 137.323 309.197C138.996 297.134 141.072 282.11 138.224 280.798ZM123.775 300.086L120.026 303.732C119.494 300.729 115.847 296.739 115.272 296.13C115.561 294.686 115.747 293.224 115.83 291.754C115.967 290.081 116.113 288.322 116.525 288.039C116.937 287.756 118.833 284.607 121.922 279.459C122.179 283.089 125.354 287.087 125.783 287.662L123.775 300.086Z" fill="white"/>
<path opacity="0.4" d="M79.2535 288.94C78.1467 298.824 68.4598 323.346 68.4598 323.346L66.7438 298.644C66.7438 298.644 59.202 332.166 57.1342 333.376C55.0665 334.586 51.4371 340.995 49.4122 346.083C48.048 349.515 43.4062 351.849 40.4805 353.024C41.3385 351.111 42.2565 349.017 42.9772 347.112C43.7513 344.753 44.8209 342.502 46.1604 340.411C46.4007 340.051 46.6581 339.674 46.9412 339.27C49.1056 336.33 50.882 333.124 52.2265 329.729C53.2218 327.018 53.0845 320.103 53.033 313.427C52.9729 308.614 52.9129 304.067 53.2818 301.527L53.4105 300.626C54.3715 293.985 56.3706 280.163 58.2239 276.456C60.0085 272.887 61.4157 272.458 63.9725 271.694L64.8305 271.437C65.7915 271.137 67.4045 270.467 69.3436 269.721C73.6336 268.005 78.9703 265.808 81.5872 265.697C84.0334 265.646 86.4721 265.984 88.8116 266.701C92.2436 264.547 97.9407 261.896 99.5623 261.982C100.892 262.042 103.698 263.131 105.054 263.698C99.3564 266.632 89.7726 273.702 89.7726 273.702C78.936 276.053 79.2535 288.94 79.2535 288.94Z" fill="#82D5FF"/>
<path opacity="0.4" d="M98.4555 275.813C101.261 273.871 104.168 272.081 107.164 270.45C109.944 269.146 110.836 263.947 108.88 262.479C108.807 262.425 108.722 262.39 108.631 262.376L108.829 262.308C110.803 261.884 112.839 261.825 114.835 262.136C111.24 267.533 108.425 271.669 107.679 272.561C105.208 275.564 98.4555 275.813 98.4555 275.813Z" fill="#82D5FF"/>
<path opacity="0.4" d="M112.638 309.678L113.951 310.244C113.153 313.427 112.638 309.678 112.638 309.678Z" fill="#82D5FF"/>
<path opacity="0.4" d="M138.224 280.798C134.792 279.193 127.979 271.669 127.13 270.725C131.42 263.5 135.658 256.533 137.126 254.86C140.171 251.428 143.887 241.415 142.377 236.576C140.995 232.132 136.473 232.844 135.856 232.964V233.153C135.856 233.153 140.746 233.762 140.738 240.832C140.729 247.902 128.031 261.913 128.031 261.913C128.031 261.913 114.972 286.409 114.114 286.04C113.256 285.671 111.343 302.411 111.343 302.411C111.343 302.411 114.981 305.508 114.114 309.678C114.068 309.884 114.025 310.073 113.985 310.244L119.579 312.655C119.579 312.655 125.191 308.717 128.039 314.508C130.888 320.3 100.652 340.995 98.2753 344.058C98.2753 344.058 97.9407 355.598 93.5306 357.297C90.6734 358.395 85.637 369.309 82.4538 376.868C87.6018 368.7 92.9471 360.626 95.238 358.773C98.3794 356.078 100.664 352.523 101.81 348.545C103.046 344.573 110.931 339.674 118.558 334.937C126.993 329.704 135.718 324.29 136.01 319.811C136.173 317.494 136.705 313.659 137.323 309.206C138.996 297.134 141.072 282.11 138.224 280.798ZM123.775 300.085L120.026 303.732C119.494 300.729 115.847 296.739 115.272 296.13C115.561 294.686 115.747 293.224 115.83 291.754C115.967 290.081 116.113 288.322 116.525 288.039C116.937 287.756 118.833 284.607 121.922 279.459C122.179 283.089 125.354 287.087 125.783 287.662L123.775 300.085Z" fill="#82D5FF"/>
<path d="M101.639 276.036C103.977 275.534 106.102 274.32 107.722 272.561C110.296 269.669 120.763 256.336 123.664 252.569C126.564 248.803 135.83 233.153 135.83 233.153C135.83 233.153 140.755 231.995 142.205 236.636C143.655 241.278 140.18 251.119 136.988 254.74C133.797 258.361 117.572 287.052 116.396 287.919C115.221 288.786 116.113 296.911 113.822 298.644" stroke="#263238" stroke-linecap="round" stroke-linejoin="round"/>
<path d="M115.066 296.207C115.066 296.207 119.605 300.961 119.897 304.144L123.947 300.18L125.98 287.627C125.98 287.627 121.973 282.805 122.093 278.841" stroke="#263238" stroke-linecap="round" stroke-linejoin="round"/>
<path d="M126.907 270.75C126.907 270.75 134.38 279.228 138.147 280.969C141.913 282.711 136.431 311.394 135.83 319.794C135.229 328.194 104.247 340.06 101.639 348.477C100.509 352.425 98.2409 355.952 95.1179 358.618C90.09 362.694 70.6306 396.001 70.6306 396.001" stroke="#263238" stroke-linecap="round" stroke-linejoin="round"/>
<path d="M115.907 262.479C115.907 262.479 111.489 261.664 108.88 262.479C106.272 263.294 95.238 271.128 92.664 272.561C90.09 273.994 86.2891 274.277 85.4225 276.036" stroke="#263238" stroke-linecap="round" stroke-linejoin="round"/>
<path d="M105.706 264.144C105.706 264.144 101.244 262.205 99.528 262.119C97.812 262.033 90.8365 265.319 87.6533 267.636C85.2058 269.431 82.4569 270.773 79.5366 271.6" stroke="#263238" stroke-linecap="round" stroke-linejoin="round"/>
<path d="M88.7858 266.838C86.4463 266.107 84.0033 265.762 81.5529 265.817C77.7777 265.98 67.9279 270.613 64.8391 271.583C61.7503 272.552 60.3002 272.638 58.3697 276.508C56.4392 280.377 54.3114 295.53 53.4448 301.518C52.5782 307.507 54.1226 325.036 52.3809 329.772C50.6392 334.508 47.9536 338.052 46.332 340.514C43.0287 345.422 43.3976 349.094 37.3831 359.493" stroke="#263238" stroke-linecap="round" stroke-linejoin="round"/>
<path d="M81.7931 277.34C78.0265 280.678 78.7215 287.052 79.2191 288.94C79.7168 290.828 77.4088 298.378 76.6451 302.411" stroke="#263238" stroke-linecap="round" stroke-linejoin="round"/>
<path d="M105.706 280.566C98.8416 280.712 96.7138 285.345 96.2676 288.391" stroke="#263238" stroke-linecap="round" stroke-linejoin="round"/>
<path d="M76.7224 273.702C74.6889 273.556 69.4723 276.748 68.4598 281.965" stroke="#263238" stroke-linecap="round" stroke-linejoin="round"/>
<path d="M125.98 287.627C125.98 287.627 126.993 284.736 128.005 284.444" stroke="#263238" stroke-linecap="round" stroke-linejoin="round"/>
<path d="M123.947 300.18C123.447 301.88 122.828 303.543 122.093 305.156C121.235 306.872 122.093 309.609 122.093 309.609" stroke="#263238" stroke-linecap="round" stroke-linejoin="round"/>
<path d="M119.897 304.144C119.751 307.044 116.559 310.15 115.907 309.609" stroke="#263238" stroke-linecap="round" stroke-linejoin="round"/>
<path d="M92.6125 299.219C92.5096 302.411 86.7181 325.731 86.7181 325.731" stroke="#263238" stroke-linecap="round" stroke-linejoin="round"/>
</svg>
