<svg width="28" height="28" viewBox="0 0 28 28" fill="none" xmlns="http://www.w3.org/2000/svg">
<path d="M2.33366 22.1667V20.3875H25.667V22.1667H2.33366ZM3.44199 14.7583L2.27533 14.1167L3.44199 12.1333H1.16699V10.8208H3.44199L2.27533 8.8375L3.44199 8.19583L4.55033 10.15L5.65866 8.19583L6.82533 8.8375L5.65866 10.8208H7.93366V12.1333H5.65866L6.82533 14.1167L5.65866 14.7583L4.55033 12.8042L3.44199 14.7583ZM12.892 14.7583L11.7253 14.0583L12.892 12.075H10.617V10.7625H12.892L11.7253 8.77916L12.892 8.1375L14.0003 10.0917L15.1087 8.1375L16.2753 8.77916L15.1087 10.7625H17.3837V12.075H15.1087L16.2753 14.0583L15.1087 14.7583L14.0003 12.8042L12.892 14.7583ZM22.342 14.7583L21.1753 14.0583L22.342 12.075H20.067V10.7625H22.342L21.1753 8.77916L22.342 8.1375L23.4503 10.0917L24.5587 8.1375L25.7253 8.77916L24.5587 10.7625H26.8337V12.075H24.5587L25.7253 14.0583L24.5587 14.7583L23.4503 12.8042L22.342 14.7583Z" fill="#ECEBF3"/>
</svg>
