<svg width="28" height="19" viewBox="0 0 28 19" fill="none" xmlns="http://www.w3.org/2000/svg">
<path d="M19.2157 9.37326C21.6314 9.37326 23.5879 7.24706 23.5879 4.63173C23.5879 2.05633 21.6414 0 19.2157 0C16.82 0 14.8435 2.08627 14.8435 4.65169C14.8535 7.25704 16.81 9.37326 19.2157 9.37326ZM7.64635 9.60285C9.75259 9.60285 11.4496 7.73619 11.4496 5.4303C11.4496 3.18431 9.75259 1.36756 7.64635 1.36756C5.56007 1.36756 3.83316 3.21426 3.84314 5.44028C3.84314 7.74617 5.55009 9.60285 7.64635 9.60285ZM19.2157 7.62638C17.8381 7.62638 16.6702 6.3287 16.6702 4.64171C16.6702 3.01462 17.8282 1.74688 19.2157 1.74688C20.6132 1.74688 21.7611 2.99465 21.7611 4.63173C21.7611 6.30873 20.6032 7.62638 19.2157 7.62638ZM7.64635 7.87594C6.51836 7.87594 5.56007 6.79786 5.56007 5.44028C5.56007 4.1426 6.50838 3.08449 7.64635 3.08449C8.80428 3.08449 9.7426 4.12264 9.7426 5.4303C9.7426 6.79786 8.78431 7.87594 7.64635 7.87594ZM2.15615 18.7765H9.9123C9.36328 18.457 8.99394 17.7283 9.06382 17.0695H2.06631C1.87665 17.0695 1.79679 16.9797 1.79679 16.81C1.79679 14.5241 4.47201 12.3479 7.63636 12.3479C8.75437 12.3479 9.87237 12.6274 10.7308 13.1066C11.0702 12.6175 11.4895 12.1982 12.0385 11.8389C10.7708 11.0602 9.19358 10.641 7.63636 10.641C3.4139 10.641 0 13.6556 0 16.9697C0 18.1676 0.718717 18.7765 2.15615 18.7765ZM12.9968 18.7765H25.4346C27.1615 18.7765 28 18.2274 28 17.0496C28 14.3045 24.5661 10.651 19.2157 10.651C13.8652 10.651 10.4314 14.3045 10.4314 17.0496C10.4314 18.2274 11.2699 18.7765 12.9968 18.7765ZM12.6774 17.0296C12.4478 17.0296 12.3579 16.9497 12.3579 16.7701C12.3579 15.2428 14.8235 12.3979 19.2157 12.3979C23.6078 12.3979 26.0734 15.2428 26.0734 16.7701C26.0734 16.9497 25.9836 17.0296 25.744 17.0296H12.6774Z" fill="#ECEBF3"/>
</svg>
