<svg width="28" height="28" viewBox="0 0 28 28" fill="currentColor"  xmlns="http://www.w3.org/2000/svg">
<path d="M22.9217 15.151H22.4551C22.2942 14.1878 21.9241 13.2898 21.3771 12.5225L21.6989 12.1959C22.1011 11.7878 22.1011 11.1184 21.6989 10.6939C21.2966 10.2857 20.6208 10.2857 20.2186 10.6939L19.8968 11.0204C19.1566 10.4653 18.2717 10.0898 17.3224 9.92654V9.45307C17.3224 8.86531 16.8558 8.39185 16.2765 8.39185C15.9708 8.39185 15.6973 8.52246 15.5042 8.75103C15.6329 8.9796 15.6973 9.24082 15.6973 9.51837C15.6973 10.2694 15.1663 10.9061 14.4744 11.0694C14.3779 11.4123 14.2492 11.7388 14.0722 12.0327C14.1526 12.1469 14.2009 12.2776 14.2492 12.4082C14.5549 12.2449 14.8928 12.098 15.2307 12.0163C15.5686 11.9347 15.9225 11.8857 16.2765 11.8857C16.6305 11.8857 16.9845 11.9347 17.3224 12.0163C17.7246 12.1143 18.1108 12.2776 18.4487 12.4898C19.0601 12.849 19.5589 13.3714 19.929 13.9918C20.1381 14.351 20.299 14.7265 20.3956 15.1347C20.476 15.4776 20.5243 15.8367 20.5243 16.1959C20.5243 16.5551 20.476 16.9143 20.3956 17.2571C20.299 17.6653 20.1381 18.0571 19.929 18.4C19.575 19.0204 19.0601 19.5265 18.4487 19.902C18.0947 20.1143 17.7246 20.2775 17.3224 20.3755C16.9845 20.4571 16.6305 20.5061 16.2765 20.5061C15.9225 20.5061 15.5686 20.4571 15.2307 20.3755C14.8284 20.2775 14.4422 20.1143 14.1044 19.902C13.4929 19.5429 12.9941 19.0204 12.6241 18.4C12.4149 18.0408 12.254 17.6653 12.1575 17.2571C12.077 16.9143 12.0287 16.5551 12.0287 16.1959C12.0287 15.8367 12.077 15.4776 12.1575 15.1347C12.2218 14.8898 12.3023 14.6449 12.3988 14.4163C12.2218 14.3673 12.0609 14.302 11.9161 14.2041C11.6104 14.3673 11.2886 14.498 10.9668 14.6122C10.822 15.3306 10.1945 15.8531 9.43822 15.8531C9.18078 15.8531 8.93943 15.7878 8.71417 15.6735C8.63372 15.8204 8.58545 16 8.58545 16.1796C8.58545 16.7673 9.05206 17.2408 9.63131 17.2408H10.0979C10.2588 18.2041 10.6289 19.102 11.176 19.8694L10.8542 20.1959C10.4519 20.6041 10.4519 21.2735 10.8542 21.698C11.0633 21.9102 11.3208 22.0082 11.5943 22.0082C11.8678 22.0082 12.1253 21.9102 12.3344 21.698L12.6562 21.3714C13.4125 21.9102 14.2974 22.302 15.2468 22.4653V22.9388C15.2468 23.5265 15.7134 24 16.2926 24C16.8719 24 17.3385 23.5265 17.3385 22.9388V22.4653C18.2878 22.302 19.1727 21.9265 19.929 21.3714L20.2508 21.698C20.4599 21.9102 20.7174 22.0082 20.9909 22.0082C21.2645 22.0082 21.5219 21.9102 21.7311 21.698C22.1333 21.2898 22.1333 20.6041 21.7311 20.1959L21.4093 19.8694C21.9402 19.102 22.3264 18.2041 22.4873 17.2408H22.9539C23.5332 17.2408 23.9998 16.7673 23.9998 16.1796C23.9676 15.6245 23.501 15.151 22.9217 15.151Z" fill="currentColor"/>
<path d="M8.68222 14.2857C8.68222 14.6939 9.02011 15.0367 9.42237 15.0367C9.82462 15.0367 10.1625 14.6939 10.1625 14.2857V13.9592C10.8383 13.8449 11.4658 13.5837 11.9968 13.1918L12.222 13.4204C12.3669 13.5673 12.5599 13.6326 12.7369 13.6326C12.93 13.6326 13.107 13.5673 13.2518 13.4204C13.5414 13.1265 13.5414 12.6531 13.2518 12.3592L13.0265 12.1306C13.4127 11.5918 13.6702 10.9551 13.7828 10.2694H14.1046C14.5068 10.2694 14.8447 9.92652 14.8447 9.51836C14.8447 9.1102 14.5068 8.76734 14.1046 8.76734H13.7828C13.6702 8.08163 13.3966 7.44489 13.0265 6.90612L13.2518 6.67755C13.5414 6.38367 13.5414 5.9102 13.2518 5.61632C12.9622 5.32245 12.4956 5.32245 12.206 5.61632L11.9968 5.8449C11.4658 5.45306 10.8383 5.19184 10.1625 5.07755V4.75102C10.1625 4.34286 9.82462 4 9.42237 4C9.02011 4 8.68222 4.34286 8.68222 4.75102V5.07755C8.02253 5.19184 7.39501 5.46939 6.86404 5.8449L6.63878 5.61632C6.34916 5.32245 5.88254 5.32245 5.59292 5.61632C5.3033 5.9102 5.3033 6.38367 5.59292 6.67755L5.81818 6.90612C5.43202 7.44489 5.17458 8.08163 5.06195 8.76734H4.74014C4.33789 8.76734 4 9.1102 4 9.51836C4 9.92652 4.33789 10.2694 4.74014 10.2694H5.06195C5.17458 10.9551 5.43202 11.5918 5.81818 12.1306L5.59292 12.3592C5.3033 12.6531 5.3033 13.1265 5.59292 13.4204C5.73773 13.5673 5.93081 13.6326 6.1078 13.6326C6.30088 13.6326 6.49397 13.5673 6.62269 13.4204L6.84795 13.1918C7.37892 13.5837 8.00644 13.8449 8.68222 13.9592V14.2857ZM8.19952 11.6082C7.86162 11.3959 7.572 11.1184 7.36283 10.7592C7.2502 10.5633 7.15366 10.351 7.10539 10.1061C7.05712 9.9102 7.02494 9.71428 7.02494 9.51836C7.02494 9.30612 7.05712 9.1102 7.10539 8.93061C7.16975 8.70204 7.2502 8.48979 7.36283 8.27755C7.572 7.93469 7.84553 7.64081 8.19952 7.42857C8.3926 7.31428 8.60177 7.21632 8.84312 7.16734C9.0362 7.11836 9.22928 7.08571 9.42237 7.08571C9.63154 7.08571 9.82462 7.11836 10.0016 7.16734C10.2269 7.23265 10.436 7.31428 10.6452 7.42857C10.9831 7.64081 11.2727 7.91836 11.4819 8.27755C11.5945 8.47346 11.6911 8.68571 11.7393 8.93061C11.7876 9.12652 11.8198 9.32244 11.8198 9.51836C11.8198 9.73061 11.7876 9.92652 11.7393 10.1061C11.675 10.3347 11.5945 10.5469 11.4819 10.7592C11.2727 11.102 10.9992 11.3959 10.6452 11.6082C10.4521 11.7224 10.243 11.8204 10.0016 11.8694C9.80853 11.9184 9.61545 11.951 9.42237 11.951C9.21319 11.951 9.02011 11.9184 8.84312 11.8694C8.61786 11.8204 8.40869 11.7224 8.19952 11.6082Z" fill="currentColor"/>
</svg>
