<svg width="1920" height="388" viewBox="0 0 1920 388" fill="none" xmlns="http://www.w3.org/2000/svg">
<path fill-rule="evenodd" clip-rule="evenodd" d="M-1 155.211L60.2151 126.657C127.445 95.8483 261.904 34.2315 396.364 11.1252C530.823 -11.981 665.283 3.42315 799.742 34.2315C934.202 65.0399 1068.66 111.252 1203.12 142.061C1337.58 172.869 1472.04 188.273 1606.5 180.571C1740.96 172.869 1805.38 148.702 1916.99 128.675C1922.72 127.646 1920.33 146.199 1920.33 146.199L1923 247.837L1918.32 362.993H1898.94C1831.71 362.993 1754.06 359.488 1619.6 359.488C1485.14 359.488 1343.06 344.969 1208.6 344.969C1074.14 344.969 933.4 347.472 798.94 347.472C664.481 347.472 527.081 354.482 392.621 354.482C258.162 354.482 116.351 357.986 49.1216 357.986L-1 368V155.211Z" fill="#00A9FF" fill-opacity="0.53"/>
<path fill-rule="evenodd" clip-rule="evenodd" d="M-1 164.824L63.0333 137.467C127.067 110.11 255.133 55.3965 383.2 34.8789C511.267 14.3612 639.333 28.0396 767.4 55.3965C895.467 82.7533 1023.53 123.789 1151.6 151.145C1279.67 178.502 1407.73 192.181 1535.8 185.341C1663.87 178.502 1791.93 151.145 1855.97 137.467L1920 123.789V370H1855.97C1791.93 370 1663.87 370 1535.8 370C1407.73 370 1279.67 370 1151.6 370C1023.53 370 895.467 370 767.4 370C639.333 370 511.267 370 383.2 370C255.133 370 127.067 370 63.0333 370H-1V164.824Z" fill="#00A6FB"/>
</svg>
