<?xml version="1.0" standalone="no"?>
<!DOCTYPE svg PUBLIC "-//W3C//DTD SVG 20010904//EN"
 "http://www.w3.org/TR/2001/REC-SVG-20010904/DTD/svg10.dtd">
<svg version="1.0" xmlns="http://www.w3.org/2000/svg"
 width="200.000000pt" height="120.000000pt" viewBox="0 0 105.000000 10.000000"
 preserveAspectRatio="xMidYMid meet">

<g transform="translate(-45.000000,105.000000) scale(0.100000,-0.100000)"
fill="currentColor" stroke="none">
<path d="M588 1208 c-6 -18 -28 -65 -49 -104 -57 -108 -83 -187 -76 -233 19
-147 208 -179 276 -48 19 38 22 55 17 91 -7 48 -103 253 -113 243 -3 -4 16
-49 42 -101 55 -108 67 -173 41 -228 -21 -45 -63 -68 -121 -68 -42 0 -52 5
-87 40 -39 39 -40 41 -36 99 3 45 17 86 66 186 42 88 63 123 68 112 11 -30 23
-18 13 13 -14 39 -27 38 -41 -2z"/>
<path d="M766 1183 c26 -117 37 -144 58 -141 15 2 24 16 35 53 l14 50 17 -50
c12 -36 23 -51 37 -53 17 -3 23 7 37 65 9 37 19 76 22 86 4 12 0 17 -14 17
-17 0 -23 -12 -34 -62 l-14 -63 -15 50 c-11 37 -20 50 -33 50 -14 0 -23 -13
-34 -50 l-15 -50 -15 63 c-11 50 -18 62 -33 62 -16 0 -18 -5 -13 -27z"/>
<path d="M1143 1203 c-14 -5 -17 -69 -7 -122 7 -36 35 -55 64 -46 27 9 25 32
-2 31 -19 -1 -23 5 -26 37 -3 34 -1 37 22 37 16 0 26 6 26 15 0 9 -9 15 -25
15 -18 0 -25 5 -25 20 0 20 -5 23 -27 13z"/>
<path d="M1010 1155 c0 -10 10 -15 30 -15 40 0 38 -13 -2 -25 -26 -8 -34 -16
-36 -37 -3 -23 2 -30 24 -38 15 -6 40 -8 56 -5 26 6 28 10 28 51 0 66 -13 84
-60 84 -29 0 -40 -4 -40 -15z m70 -81 c0 -10 -7 -14 -22 -12 -32 5 -35 28 -4
28 17 0 26 -5 26 -16z"/>
<path d="M1246 1148 c-18 -26 -21 -61 -6 -88 18 -34 100 -37 100 -4 0 10 -6
13 -19 9 -21 -6 -51 3 -51 16 0 5 18 9 40 9 36 0 40 3 40 24 0 54 -74 78 -104
34z m69 -18 c4 -6 -5 -10 -19 -10 -14 0 -26 5 -26 10 0 6 9 10 19 10 11 0 23
-4 26 -10z"/>
<path d="M1377 1163 c-4 -3 -7 -33 -7 -65 0 -51 2 -58 20 -58 17 0 20 7 20 49
0 43 3 50 22 53 12 2 23 9 26 16 4 13 -69 18 -81 5z"/>
<path d="M1078 922 l-28 -3 0 -90 c0 -82 1 -89 20 -89 14 0 20 7 20 24 0 19 4
23 19 19 26 -7 71 38 71 69 0 51 -39 77 -102 70z m58 -56 c7 -31 -1 -46 -27
-46 -15 0 -19 7 -19 35 0 28 4 35 20 35 12 0 22 -9 26 -24z"/>
<path d="M1223 923 c-21 -4 -23 -10 -23 -74 0 -62 2 -70 18 -67 13 2 18 15 20
56 3 44 6 52 23 52 23 0 26 25 3 34 -9 3 -16 5 -17 5 -1 -1 -12 -4 -24 -6z"/>
<path d="M1325 918 c-28 -16 -35 -28 -35 -65 0 -38 29 -73 60 -73 29 0 70 44
70 73 0 49 -56 87 -95 65z m50 -63 c0 -23 -5 -31 -22 -33 -19 -3 -23 1 -23 26
0 33 8 44 30 40 9 -2 15 -14 15 -33z"/>
<path d="M692 845 c-7 -14 -23 -30 -37 -37 -24 -11 -34 -28 -16 -28 17 0 68
49 74 70 7 28 -8 25 -21 -5z"/>
</g>
</svg>
